<?xml version="1.0" encoding="UTF-8" standalone="no"?>
<svg
   xmlns:dc="http://purl.org/dc/elements/1.1/"
   xmlns:cc="http://creativecommons.org/ns#"
   xmlns:rdf="http://www.w3.org/1999/02/22-rdf-syntax-ns#"
   xmlns:svg="http://www.w3.org/2000/svg"
   xmlns="http://www.w3.org/2000/svg"
   xmlns:sodipodi="http://sodipodi.sourceforge.net/DTD/sodipodi-0.dtd"
   xmlns:inkscape="http://www.inkscape.org/namespaces/inkscape"
   sodipodi:docname="amo.svg"
   inkscape:version="1.0 (4035a4fb49, 2020-05-01)"
   id="svg1137"
   version="1.1"
   viewBox="0 0 290.77707 72.760415"
   height="72.760414mm"
   width="290.77707mm">
  <defs
     id="defs1131" />
  <sodipodi:namedview
     inkscape:snap-global="false"
     inkscape:window-maximized="0"
     inkscape:window-y="0"
     inkscape:window-x="4312"
     inkscape:window-height="2071"
     inkscape:window-width="1918"
     fit-margin-bottom="0"
     fit-margin-right="0"
     fit-margin-left="0"
     fit-margin-top="0"
     showgrid="false"
     inkscape:document-rotation="0"
     inkscape:current-layer="layer1"
     inkscape:document-units="mm"
     inkscape:cy="689.13313"
     inkscape:cx="637.59852"
     inkscape:zoom="0.7"
     inkscape:pageshadow="2"
     inkscape:pageopacity="0.0"
     borderopacity="1.0"
     bordercolor="#666666"
     pagecolor="#ffffff"
     id="base" />
  <metadata
     id="metadata1134">
    <rdf:RDF>
      <cc:Work
         rdf:about="">
        <dc:format>image/svg+xml</dc:format>
        <dc:type
           rdf:resource="http://purl.org/dc/dcmitype/StillImage" />
        <dc:title></dc:title>
      </cc:Work>
    </rdf:RDF>
  </metadata>
  <g
     transform="translate(334.6907,-109.53137)"
     id="layer1"
     inkscape:groupmode="layer"
     inkscape:label="Calque 1">
    <path
       id="path2281"
       d="m -319.6127,126.49804 4.6626,44.60082 258.119939,-6.42481 -4.526246,-44.60159 z"
       style="fill:#ffffff;fill-opacity:1;stroke:none;stroke-width:0.221255px;stroke-linecap:butt;stroke-linejoin:miter;stroke-opacity:1" />
    <path
       style="fill:#500b75;stroke-width:0.264583"
       d="m -334.6907,150.8708 v -31.23434 l 2.71198,-0.16048 c 1.49159,-0.0883 65.99369,-2.29858 143.33801,-4.91181 77.34432,-2.61323 141.489242,-4.79677 142.544268,-4.85232 l 1.918229,-0.10101 v 31.24899 31.24898 l -142.544267,4.84152 c -78.39934,2.66284 -143.76465,4.91201 -145.25624,4.99817 l -2.71198,0.15664 z m 104.26871,13.64937 c 1.77052,-0.81493 3.30424,-2.27979 3.9753,-3.79683 0.80567,-1.82135 1.01814,-4.36027 1.02366,-12.23208 l 0.005,-7.47447 h -2.51354 -2.51354 v 1.08574 1.08574 l -0.92722,-0.81411 c -2.80328,-2.46131 -8.49654,-1.98778 -11.43545,0.95113 -1.7417,1.7417 -2.32171,3.24708 -2.32171,6.02587 0,2.77879 0.58001,4.28417 2.32171,6.02587 2.81341,2.81341 8.03994,3.39281 11.03487,1.2233 1.18811,-0.86068 1.23196,-0.78599 0.77886,1.32671 -0.33675,1.57024 -1.55533,2.80792 -3.03852,3.08617 -1.94883,0.3656 -4.7658,-0.0201 -6.52869,-0.89383 -0.91113,-0.4516 -1.72903,-0.73748 -1.81755,-0.63528 -0.0885,0.10219 -0.56141,0.92748 -1.05086,1.83398 -0.87388,1.61849 -0.88051,1.65531 -0.36881,2.04472 0.64984,0.49454 3.08443,1.43821 4.48983,1.7403 0.58208,0.12512 2.48708,0.19822 4.23333,0.16245 2.76848,-0.0567 3.36425,-0.15216 4.65309,-0.74538 z m -6.36321,-11.10403 c -1.40049,-0.4171 -2.28755,-1.1721 -2.7577,-2.34713 -0.55051,-1.37586 -0.53173,-2.25533 0.0768,-3.59519 0.70818,-1.55934 2.06181,-2.32395 4.10569,-2.31912 2.97331,0.007 4.52261,1.44816 4.51142,4.19646 -0.007,1.80124 -0.48145,2.7316 -1.80603,3.54399 -1.04358,0.64005 -2.931,0.87813 -4.13014,0.52099 z m 49.01709,11.41041 c 2.18109,-0.67367 4.08649,-2.31517 4.97845,-4.28896 0.61998,-1.37191 0.63265,-1.55863 0.71031,-10.45883 l 0.0791,-9.06197 h -2.52646 -2.52646 v 0.9277 0.9277 l -1.06322,-0.77019 c -2.87188,-2.08038 -7.90423,-1.6295 -10.86928,0.97384 -0.51048,0.44821 -1.27896,1.4482 -1.70772,2.22221 -0.71725,1.29477 -0.77957,1.6188 -0.77957,4.05311 0,2.43431 0.0623,2.75834 0.77957,4.05311 0.42876,0.77401 1.19724,1.774 1.70772,2.22221 2.90422,2.54994 7.73342,3.04123 10.71207,1.08979 l 1.02852,-0.67383 -0.13168,1.37042 c -0.24585,2.55854 -1.75311,3.71117 -4.85391,3.71185 -2.02335,5.3e-4 -4.24753,-0.54023 -5.58567,-1.35783 l -0.84131,-0.51402 -0.94463,1.68916 c -0.51955,0.92904 -0.94464,1.82454 -0.94464,1.99 0,0.42897 2.38908,1.58252 4.17319,2.01501 2.36691,0.57376 6.54747,0.51523 8.60566,-0.12048 z m -5.33802,-11.3749 c -2.10421,-0.4968 -3.29966,-2.19162 -3.13332,-4.44219 0.18044,-2.44136 1.83247,-3.88907 4.4216,-3.87475 2.52186,0.0139 4.14835,1.23443 4.61997,3.46671 0.43206,2.04505 -1.04326,4.28952 -3.17187,4.82551 -1.28407,0.32333 -1.4647,0.32497 -2.73638,0.0247 z m -78.87832,5.06726 v -2.6062 l -3.50573,-0.16012 c -5.10438,-0.23315 -9.15892,-1.0743 -12.96458,-2.68964 -0.42206,-0.17914 -0.46303,0.0233 -0.46303,2.28872 v 2.48525 l 2.4474,0.95104 c 4.07249,1.58253 7.51688,2.24162 12.03854,2.30361 l 2.4474,0.0336 z m -32.27917,-11.68129 v -12.17083 h -2.64583 -2.64583 v 12.17083 12.17083 h 2.64583 2.64583 z m 92.24649,11.53144 c 0.74917,-0.34881 1.48968,-0.85367 1.6456,-1.12189 0.23841,-0.41013 0.28476,-0.32991 0.29153,0.50451 l 0.008,0.99219 h 2.51355 2.51354 v -5.54323 c 0,-3.04877 -0.12792,-6.13966 -0.28425,-6.86863 -0.34935,-1.62895 -1.41359,-3.26201 -2.69186,-4.13062 -1.92412,-1.30747 -5.6275,-1.79951 -8.71868,-1.15839 -1.89898,0.39385 -4.4448,1.54684 -4.4448,2.01302 0,0.2087 0.38157,1.06825 0.84793,1.91011 l 0.84792,1.53065 1.32766,-0.66685 c 1.79587,-0.90201 4.67712,-1.10718 6.09562,-0.43406 0.89294,0.42373 1.72879,1.60925 1.72879,2.45202 0,0.12843 -1.54479,0.31506 -3.43287,0.41474 -1.88808,0.0997 -3.93373,0.35794 -4.5459,0.57392 -2.41041,0.85045 -3.6629,2.46791 -3.6629,4.73028 0,1.66393 0.53067,2.80962 1.7918,3.8684 1.42281,1.19453 2.46525,1.52966 4.82279,1.55051 1.56413,0.0138 2.27283,-0.11677 3.34649,-0.61668 z m -3.60824,-3.26362 c -1.26044,-0.6316 -1.6117,-1.67321 -0.89014,-2.63966 0.67607,-0.90552 1.27511,-1.07099 3.99616,-1.10387 l 2.18281,-0.0264 v 1.03803 c 0,1.32438 -0.91844,2.46119 -2.33013,2.88414 -1.39392,0.41763 -1.87031,0.39311 -2.9587,-0.15227 z m 51.87112,3.02472 c 0.80895,-0.38491 1.75485,-1.00217 2.10199,-1.37168 l 0.63117,-0.67185 -1.41117,-1.42892 -1.41117,-1.42892 -1.02922,0.6811 c -1.52,1.00589 -4.38682,1.14311 -6.03884,0.28903 -1.0529,-0.54433 -2.38338,-2.01691 -2.38338,-2.63793 0,-0.124 3.05175,-0.22545 6.78167,-0.22545 h 6.78166 l -0.12683,-1.9764 c -0.31217,-4.8643 -3.68482,-8.23748 -8.54825,-8.5496 -6.03763,-0.38747 -10.50685,3.95929 -10.12084,9.84353 0.20627,3.14443 1.93824,5.75812 4.76849,7.19606 1.86827,0.94921 2.96578,1.14673 5.88805,1.05968 2.21155,-0.0659 2.88726,-0.19368 4.11667,-0.77865 z m -9.53963,-10.30035 c 0.004,-1.37373 2.33677,-3.09104 4.21495,-3.10305 1.79033,-0.0115 3.59138,1.236 4.09813,2.83846 l 0.18825,0.59532 h -4.25116 c -3.22507,0 -4.25093,-0.0798 -4.25017,-0.33073 z m 64.08314,10.65412 c 1.01299,-0.31288 2.1185,-0.89179 2.73985,-1.43473 l 1.04164,-0.9102 -1.43304,-1.46239 -1.43304,-1.4624 -0.68363,0.4754 c -1.50595,1.04725 -3.8562,1.37724 -5.85474,0.82204 -1.0253,-0.28484 -2.47154,-1.63962 -2.75503,-2.5808 l -0.17931,-0.59531 h 6.8029 6.80289 l -0.15297,-2.02258 c -0.27671,-3.65875 -2.01523,-6.24507 -5.203,-7.74026 -1.27394,-0.59752 -1.81592,-0.68821 -4.11312,-0.68821 -2.38265,0 -2.80095,0.0762 -4.20528,0.76571 -1.90033,0.93308 -3.33974,2.32845 -4.31829,4.1862 -0.66406,1.2607 -0.73615,1.65811 -0.73359,4.04393 0.002,2.23796 0.0984,2.83901 0.62254,3.89895 1.13625,2.29772 3.2041,3.97519 5.98879,4.85819 1.66437,0.52775 5.10253,0.45304 7.06643,-0.15354 z m -8.52065,-10.65412 c 0.002,-0.77108 1.13452,-2.11136 2.18729,-2.58926 2.20396,-1.00048 4.63276,-0.33285 5.70052,1.56697 0.31783,0.5655 0.57787,1.10127 0.57787,1.1906 0,0.0893 -1.905,0.16242 -4.23333,0.16242 -3.21081,0 -4.2331,-0.0799 -4.23235,-0.33073 z m 49.223735,10.91503 c 1.862852,-0.51751 1.937649,-0.69252 1.157658,-2.70926 -0.60624,-1.56746 -0.748057,-1.7508 -1.176787,-1.52135 -0.855398,0.4578 -2.5888,0.31102 -3.168095,-0.26828 -0.483647,-0.48365 -0.529166,-0.88194 -0.529166,-4.63021 v -4.10104 h 2.116666 2.116667 v -2.11666 -2.11667 h -2.116667 -2.116666 v -2.11667 -2.11666 h -2.645834 -2.645833 v 2.10284 2.10283 l -1.389062,0.08 -1.389063,0.08 -0.07727,2.05052 -0.07728,2.05052 h 1.46634 1.466336 l 0.0016,4.29948 c 7.93e-4,2.36471 0.13231,4.77573 0.292221,5.35781 0.349277,1.27138 2.119159,3.0753 3.426235,3.49214 1.168072,0.37252 4.077893,0.41693 5.288124,0.0807 z m -193.111405,-5.35878 c 0.0764,-4.77863 0.14223,-5.45138 0.60904,-6.22333 1.2279,-2.03056 4.45579,-2.47892 6.08993,-0.84591 l 0.79501,0.79446 0.0805,5.8163 0.0805,5.81629 h 2.63152 2.63151 v -5.9051 c 0,-6.78197 -0.22608,-8.01711 -1.78282,-9.74024 -1.27688,-1.41335 -2.74864,-2.12413 -4.72712,-2.28295 -2.02845,-0.16282 -3.94157,0.2801 -5.51222,1.27617 l -1.20701,0.76546 v -0.92021 -0.92021 h -2.51354 -2.51354 v 8.86354 8.86354 h 2.62633 2.62633 z m 110.33037,0 c 0.0778,-4.49189 0.16802,-5.49639 0.55819,-6.21522 0.90089,-1.65974 2.9399,-2.32645 4.77284,-1.5606 1.6011,0.66898 1.76695,1.39183 1.76695,7.70117 v 5.43246 h 2.62633 2.62633 l 0.0857,-5.35781 c 0.0722,-4.51844 0.15905,-5.49214 0.55418,-6.21522 0.91703,-1.67818 3.02879,-2.35759 4.76585,-1.5333 1.61571,0.76671 1.77708,1.46193 1.77708,7.65621 v 5.45012 h 2.64583 2.64583 v -5.91108 c 0,-6.35328 -0.17868,-7.55325 -1.39941,-9.39791 -0.36148,-0.54623 -1.26539,-1.31537 -2.06869,-1.76025 -1.28806,-0.71336 -1.65807,-0.79001 -3.80794,-0.7888 -2.65778,0.002 -4.11844,0.4936 -5.56851,1.87606 l -0.80601,0.76844 -1.01074,-0.99109 c -1.13251,-1.1105 -2.99135,-1.78789 -4.89974,-1.78556 -1.63173,0.002 -2.83701,0.36756 -4.32673,1.31231 l -1.24764,0.79122 v -0.92021 -0.92021 h -2.51354 -2.51354 v 8.86354 8.86354 h 2.62231 2.62232 z m 55.518205,0.66145 c 7.94e-4,-2.58299 0.131287,-5.1726 0.289944,-5.75468 0.680387,-2.49621 3.341672,-3.72903 5.66742,-2.62539 1.544232,0.73279 1.714076,1.48846 1.714076,7.62631 v 5.45012 h 2.662603 2.662602 l -0.08291,-6.54844 c -0.07732,-6.10675 -0.121274,-6.62005 -0.651629,-7.61024 -1.221676,-2.28089 -3.192078,-3.55955 -5.808932,-3.76961 -2.028454,-0.16282 -3.941569,0.2801 -5.512218,1.27617 l -1.20701,0.76546 v -0.92021 -0.92021 h -2.513542 -2.513549 v 8.86354 8.86354 h 2.645841 2.645833 l 0.0016,-4.69636 z m -179.521255,-7.20989 v -2.24896 l -6.81302,-0.0706 -6.81303,-0.0706 v 2.39018 2.39018 l 6.81303,-0.0706 6.81302,-0.0706 z m -20.63504,-4.56406 c 1.62384,-4.03207 1.74526,-5.54113 0.5465,-6.79236 -1.339,-1.39762 -3.30224,-1.40913 -4.68391,-0.0275 -0.64016,0.64017 -0.75984,0.97464 -0.75984,2.12347 0,1.16476 0.11668,1.48031 0.80008,2.16371 l 0.80009,0.80009 -0.55343,2.02383 c -0.30438,1.11311 -0.61291,2.23219 -0.68562,2.48685 -0.116,0.40627 0.0739,0.46302 1.54931,0.46302 h 1.68151 z m 10.18399,-2.58499 c 2.97221,-0.99729 6.26328,-1.55521 10.3849,-1.7605 l 3.37344,-0.16802 v -2.46764 c 0,-2.43873 -0.008,-2.46965 -0.69004,-2.64081 -0.92878,-0.23311 -5.54487,0.10217 -8.11245,0.58923 -2.0503,0.38894 -5.98496,1.65811 -7.40324,2.38801 -0.71285,0.36686 -0.72761,0.42318 -0.72761,2.77721 0,2.18161 0.0426,2.38594 0.46303,2.21995 0.25466,-0.10055 1.47505,-0.52239 2.71197,-0.93743 z"
       id="path2266" />
    <path
       style="fill:#774294;stroke-width:0.264583"
       d="m -330.25194,181.83313 c 0.62231,-0.0559 1.57481,-0.0551 2.11667,0.002 0.54186,0.0568 0.0327,0.10258 -1.13147,0.10162 -1.16417,-10e-4 -1.60751,-0.0475 -0.9852,-0.10337 z m 7.79822,-0.26325 c 0.5457,-0.0571 1.43867,-0.0571 1.98437,0 0.54571,0.0571 0.0992,0.10378 -0.99218,0.10378 -1.09141,0 -1.53789,-0.0467 -0.99219,-0.10378 z m 7.8122,-0.26592 c 0.62231,-0.0559 1.57481,-0.0551 2.11667,0.002 0.54185,0.0569 0.0327,0.10259 -1.13148,0.10163 -1.16416,-0.001 -1.6075,-0.0475 -0.98519,-0.10337 z m 7.67292,-0.26458 c 0.62231,-0.0559 1.57481,-0.0551 2.11666,0.002 0.54186,0.0568 0.0327,0.10258 -1.13147,0.10162 -1.16417,-0.001 -1.6075,-0.0475 -0.98519,-0.10337 z m 7.79821,-0.26325 c 0.5457,-0.0571 1.43867,-0.0571 1.98438,0 0.5457,0.0571 0.0992,0.10378 -0.99219,0.10378 -1.09141,0 -1.53789,-0.0467 -0.99219,-0.10378 z m 7.8122,-0.26592 c 0.62231,-0.0559 1.57481,-0.0551 2.11667,0.002 0.54185,0.0569 0.0327,0.10259 -1.13147,0.10163 -1.16417,-0.001 -1.60751,-0.0475 -0.9852,-0.10337 z m 7.67292,-0.26458 c 0.62231,-0.0559 1.57481,-0.0551 2.11666,0.002 0.54186,0.0568 0.0327,0.10258 -1.13147,0.10162 -1.16416,-0.001 -1.6075,-0.0475 -0.98519,-0.10337 z m 7.79821,-0.26325 c 0.54571,-0.0571 1.43867,-0.0571 1.98438,0 0.5457,0.0571 0.0992,0.10378 -0.99219,0.10378 -1.09141,0 -1.53789,-0.0467 -0.99219,-0.10378 z m 7.8122,-0.26592 c 0.62231,-0.0559 1.57481,-0.0551 2.11667,0.002 0.54186,0.0569 0.0327,0.10259 -1.13147,0.10163 -1.16417,-0.001 -1.60751,-0.0475 -0.9852,-0.10337 z m 7.67292,-0.26458 c 0.62231,-0.0559 1.57481,-0.0551 2.11667,0.002 0.54185,0.0568 0.0327,0.10258 -1.13148,0.10162 -1.16416,-0.001 -1.6075,-0.0475 -0.98519,-0.10337 z m 7.67292,-0.26458 c 0.62231,-0.0559 1.57481,-0.0551 2.11666,0.002 0.54186,0.0568 0.0327,0.10258 -1.13147,0.10162 -1.16417,-0.001 -1.6075,-0.0475 -0.98519,-0.10337 z m 7.79821,-0.26326 c 0.5457,-0.0571 1.43867,-0.0571 1.98438,0 0.5457,0.0571 0.0992,0.10379 -0.99219,0.10379 -1.09141,0 -1.53789,-0.0467 -0.99219,-0.10379 z m 7.8122,-0.26591 c 0.62231,-0.0559 1.57481,-0.0551 2.11667,0.002 0.54186,0.0568 0.0327,0.10258 -1.13147,0.10162 -1.16417,-0.001 -1.60751,-0.0475 -0.9852,-0.10337 z m 7.67292,-0.26458 c 0.62231,-0.0559 1.57481,-0.0551 2.11667,0.002 0.54185,0.0568 0.0327,0.10258 -1.13148,0.10162 -1.16416,-0.001 -1.6075,-0.0475 -0.98519,-0.10337 z m 7.79821,-0.26326 c 0.54571,-0.0571 1.43868,-0.0571 1.98438,0 0.5457,0.0571 0.0992,0.10379 -0.99219,0.10379 -1.0914,0 -1.53789,-0.0467 -0.99219,-0.10379 z m 7.8122,-0.26591 c 0.62232,-0.0559 1.57482,-0.0551 2.11667,0.002 0.54186,0.0568 0.0327,0.10258 -1.13147,0.10162 -1.16417,-10e-4 -1.60751,-0.0475 -0.9852,-0.10337 z m 7.67292,-0.26458 c 0.62231,-0.0559 1.57481,-0.0551 2.11667,0.002 0.54185,0.0568 0.0327,0.10258 -1.13147,0.10162 -1.16417,-0.001 -1.60751,-0.0475 -0.9852,-0.10337 z m 7.79822,-0.26326 c 0.5457,-0.0571 1.43867,-0.0571 1.98437,0 0.5457,0.0571 0.0992,0.10379 -0.99219,0.10379 -1.0914,0 -1.53789,-0.0467 -0.99218,-0.10379 z m 7.8122,-0.26591 c 0.62231,-0.0559 1.57481,-0.0551 2.11666,0.002 0.54186,0.0568 0.0327,0.10258 -1.13147,0.10162 -1.16416,-0.001 -1.6075,-0.0475 -0.98519,-0.10337 z m 7.67291,-0.26458 c 0.62231,-0.0559 1.57481,-0.0551 2.11667,0.002 0.54186,0.0568 0.0327,0.10258 -1.13147,0.10162 -1.16417,-0.001 -1.60751,-0.0475 -0.9852,-0.10337 z m 7.79822,-0.26326 c 0.5457,-0.0571 1.43867,-0.0571 1.98437,0 0.54571,0.0571 0.0992,0.10379 -0.99218,0.10379 -1.09141,0 -1.53789,-0.0467 -0.99219,-0.10379 z m 7.8122,-0.26591 c 0.62231,-0.0559 1.57481,-0.0551 2.11667,0.002 0.54185,0.0568 0.0327,0.10258 -1.13148,0.10162 -1.16416,-0.001 -1.6075,-0.0475 -0.98519,-0.10337 z m 7.67292,-0.26458 c 0.62231,-0.0559 1.57481,-0.0551 2.11666,0.002 0.54186,0.0568 0.0327,0.10258 -1.13147,0.10162 -1.16417,-10e-4 -1.6075,-0.0475 -0.98519,-0.10337 z m 7.79821,-0.26326 c 0.5457,-0.0571 1.43867,-0.0571 1.98438,0 0.5457,0.0571 0.0992,0.10379 -0.99219,0.10379 -1.09141,0 -1.53789,-0.0467 -0.99219,-0.10379 z m 7.8122,-0.26591 c 0.62231,-0.0559 1.57481,-0.0551 2.11667,0.002 0.54185,0.0568 0.0327,0.10258 -1.13147,0.10162 -1.16417,-0.001 -1.60751,-0.0475 -0.9852,-0.10337 z m 7.67292,-0.26458 c 0.62231,-0.0559 1.57481,-0.0551 2.11666,0.002 0.54186,0.0568 0.0327,0.10258 -1.13147,0.10162 -1.16416,-0.001 -1.6075,-0.0475 -0.98519,-0.10337 z m 7.79821,-0.26326 c 0.54571,-0.0571 1.43867,-0.0571 1.98438,0 0.5457,0.0571 0.0992,0.10379 -0.99219,0.10379 -1.09141,0 -1.53789,-0.0467 -0.99219,-0.10379 z m 7.8122,-0.26591 c 0.62231,-0.0559 1.57481,-0.0551 2.11667,0.002 0.54186,0.0568 0.0327,0.10258 -1.13147,0.10162 -1.16417,-0.001 -1.60751,-0.0475 -0.9852,-0.10337 z m 7.67292,-0.26458 c 0.62231,-0.0559 1.57481,-0.0551 2.11667,0.002 0.54185,0.0568 0.0327,0.10258 -1.13148,0.10162 -1.16416,-0.001 -1.6075,-0.0475 -0.98519,-0.10337 z m 7.79822,-0.26326 c 0.5457,-0.0571 1.43867,-0.0571 1.98437,0 0.5457,0.0571 0.0992,0.10379 -0.99219,0.10379 -1.0914,0 -1.53789,-0.0467 -0.99218,-0.10379 z m 7.812196,-0.26591 c 0.622311,-0.0559 1.574811,-0.0551 2.116667,0.002 0.541856,0.0568 0.03269,0.10258 -1.131472,0.10162 -1.164167,-10e-4 -1.607505,-0.0475 -0.985195,-0.10337 z m 7.672917,-0.26458 c 0.62231,-0.0559 1.57481,-0.0551 2.116666,0.002 0.541856,0.0568 0.0327,0.10258 -1.131472,0.10162 -1.164167,-0.001 -1.607505,-0.0475 -0.985194,-0.10337 z m 7.798215,-0.26326 c 0.545703,-0.0571 1.438671,-0.0571 1.984374,0 0.545704,0.0571 0.09922,0.10379 -0.992187,0.10379 -1.091406,0 -1.537891,-0.0467 -0.992187,-0.10379 z m 7.672916,-0.26458 c 0.545703,-0.0571 1.438672,-0.0571 1.984375,0 0.545703,0.0571 0.09922,0.10379 -0.992188,0.10379 -1.091406,0 -1.53789,-0.0467 -0.992187,-0.10379 z m 7.812193,-0.26591 c 0.622326,-0.0559 1.574826,-0.0551 2.116666,0.002 0.541867,0.0568 0.0327,0.10258 -1.131464,0.10162 -1.164166,-0.001 -1.607502,-0.0475 -0.985202,-0.10337 z m 7.672916,-0.26459 c 0.622327,-0.0559 1.574827,-0.0551 2.116667,0.002 0.541866,0.0569 0.0327,0.10259 -1.131464,0.10163 -1.164167,-0.001 -1.607503,-0.0475 -0.985203,-0.10337 z m 7.798223,-0.26325 c 0.545703,-0.0571 1.438672,-0.0571 1.984375,0 0.545703,0.0571 0.09922,0.10379 -0.992187,0.10379 -1.091407,0 -1.537891,-0.0467 -0.992188,-0.10379 z m 6.941053,-31.42497 c 0,-17.31697 0.03167,-24.36223 0.07038,-15.65611 0.03868,8.70611 0.03868,22.87455 -2.7e-5,31.48541 -0.03871,8.61087 -0.07035,1.48768 -0.07035,-15.8293 z m -194.133749,24.29873 c 0.1819,-0.0734 0.47955,-0.0734 0.66145,0 0.18191,0.0734 0.0331,0.13346 -0.33072,0.13346 -0.36381,0 -0.51263,-0.0601 -0.33073,-0.13346 z m 4.49791,0 c 0.1819,-0.0734 0.47956,-0.0734 0.66146,0 0.1819,0.0734 0.0331,0.13346 -0.33073,0.13346 -0.3638,0 -0.51263,-0.0601 -0.33073,-0.13346 z m 38.89375,0 c 0.1819,-0.0734 0.47956,-0.0734 0.66146,0 0.1819,0.0734 0.0331,0.13346 -0.33073,0.13346 -0.3638,0 -0.51263,-0.0601 -0.33073,-0.13346 z m 4.7625,0 c 0.1819,-0.0734 0.47956,-0.0734 0.66146,0 0.1819,0.0734 0.0331,0.13346 -0.33073,0.13346 -0.3638,0 -0.51263,-0.0601 -0.33073,-0.13346 z m -49.72513,-0.27009 c 0.191,-0.0764 0.4192,-0.067 0.50712,0.0209 0.0879,0.0879 -0.0683,0.15046 -0.34726,0.13897 -0.30823,-0.0127 -0.37092,-0.0754 -0.15986,-0.15985 z m 11.4267,-1.77124 c 0,-0.0549 0.20835,-0.2633 0.46302,-0.46302 0.41964,-0.32911 0.429,-0.31975 0.0999,0.0999 -0.34564,0.44073 -0.56291,0.58089 -0.56291,0.36313 z m -8.40053,-1.9417 c 0.40019,-0.0606 1.05503,-0.0606 1.45521,0 0.40019,0.0606 0.0728,0.11023 -0.7276,0.11023 -0.80037,0 -1.12779,-0.0496 -0.72761,-0.11023 z m 43.65625,0 c 0.40018,-0.0606 1.05503,-0.0606 1.45521,0 0.40018,0.0606 0.0728,0.11023 -0.7276,0.11023 -0.80037,0 -1.12779,-0.0496 -0.72761,-0.11023 z m -83.60329,-0.25843 c 0.25743,-0.0671 0.61462,-0.0627 0.79375,0.01 0.17913,0.0725 -0.0315,0.12736 -0.46806,0.12197 -0.43656,-0.005 -0.58312,-0.0647 -0.32569,-0.13177 z m 3.70416,0 c 0.25744,-0.0671 0.61462,-0.0627 0.79375,0.01 0.17914,0.0725 -0.0315,0.12736 -0.46805,0.12197 -0.43656,-0.005 -0.58313,-0.0647 -0.3257,-0.13177 z m -6.2062,-0.26196 c 0.19099,-0.0764 0.4192,-0.067 0.50712,0.0209 0.0879,0.0879 -0.0684,0.15045 -0.34727,0.13897 -0.30822,-0.0127 -0.37092,-0.0754 -0.15985,-0.15986 z m -1.5875,-0.26459 c 0.19099,-0.0764 0.4192,-0.067 0.50712,0.0209 0.0879,0.0879 -0.0684,0.15045 -0.34727,0.13896 -0.30822,-0.0127 -0.37092,-0.0754 -0.15985,-0.15985 z m 48.60065,-0.34843 c 0.26339,-0.29104 0.53842,-0.52916 0.61118,-0.52916 0.0728,0 -0.0832,0.23812 -0.3466,0.52916 -0.26339,0.29105 -0.53842,0.52917 -0.61118,0.52917 -0.0728,0 0.0832,-0.23812 0.3466,-0.52917 z m -10.18268,-0.63878 c 0.17135,-0.17134 0.35026,-0.17134 0.5216,0 0.17135,0.17135 0.0819,0.26081 -0.2608,0.26081 -0.3427,0 -0.43215,-0.0895 -0.2608,-0.26081 z m -67.08589,-12.59038 c 0,-6.76672 0.0343,-9.53492 0.0761,-6.15156 0.0419,3.38336 0.0419,8.91976 0,12.30312 -0.0419,3.38336 -0.0761,0.61516 -0.0761,-6.15156 z m 92.15138,11.9956 c 0.1819,-0.0734 0.47956,-0.0734 0.66146,0 0.1819,0.0734 0.0331,0.13346 -0.33073,0.13346 -0.3638,0 -0.51263,-0.0601 -0.33073,-0.13346 z m 3.45612,-0.006 c 0.19099,-0.0764 0.4192,-0.067 0.50712,0.0209 0.0879,0.0879 -0.0684,0.15045 -0.34727,0.13896 -0.30822,-0.0127 -0.37092,-0.0754 -0.15985,-0.15985 z m 43.39166,0 c 0.191,-0.0764 0.4192,-0.067 0.50712,0.0209 0.0879,0.0879 -0.0683,0.15045 -0.34726,0.13896 -0.30823,-0.0127 -0.37092,-0.0754 -0.15986,-0.15985 z m 3.42305,0.006 c 0.1819,-0.0734 0.47956,-0.0734 0.66146,0 0.1819,0.0734 0.0331,0.13346 -0.33073,0.13346 -0.3638,0 -0.51263,-0.0601 -0.33073,-0.13346 z m 51.85833,0 c 0.1819,-0.0734 0.47956,-0.0734 0.66146,0 0.1819,0.0734 0.0331,0.13346 -0.33073,0.13346 -0.3638,0 -0.51263,-0.0601 -0.33073,-0.13346 z m 3.70417,0 c 0.1819,-0.0734 0.47955,-0.0734 0.66146,0 0.1819,0.0734 0.0331,0.13346 -0.33073,0.13346 -0.36381,0 -0.51263,-0.0601 -0.33073,-0.13346 z m 38.629162,0 c 0.181901,-0.0734 0.479557,-0.0734 0.661458,0 0.181901,0.0734 0.03307,0.13346 -0.330729,0.13346 -0.363802,0 -0.51263,-0.0601 -0.330729,-0.13346 z m 3.191536,-0.006 c 0.191003,-0.0764 0.419206,-0.067 0.507127,0.0209 0.08792,0.0879 -0.06837,0.15045 -0.347265,0.13896 -0.30824,-0.0127 -0.37092,-0.0754 -0.159862,-0.15985 z M -266.8386,149.88033 c 10e-5,-4.94771 0.0358,-6.93439 0.0793,-4.41484 0.0435,2.51956 0.0434,6.56768 -1.8e-4,8.99584 -0.0436,2.42816 -0.0792,0.36671 -0.0791,-4.581 z m 12.95699,3.70416 c -2.4e-4,-2.91041 0.0384,-4.13714 0.0859,-2.72605 0.0475,1.41109 0.0477,3.79234 5.3e-4,5.29167 -0.0473,1.49933 -0.0861,0.3448 -0.0863,-2.56562 z m 27.95554,4.74046 c 0.0127,-0.30823 0.0754,-0.37092 0.15985,-0.15986 0.0764,0.191 0.067,0.4192 -0.0209,0.50712 -0.0879,0.0879 -0.15045,-0.0684 -0.13897,-0.34726 z m 15.92618,-0.63942 c 0,-0.65484 0.0516,-0.92273 0.11466,-0.59531 0.0631,0.32742 0.0631,0.86321 0,1.19063 -0.0631,0.32742 -0.11466,0.0595 -0.11466,-0.59532 z m 4.80355,-4.76249 c 0,-3.27422 0.038,-4.61368 0.0844,-2.97657 0.0464,1.63711 0.0464,4.31602 0,5.95313 -0.0464,1.63711 -0.0844,0.29765 -0.0844,-2.97656 z m 48.68899,-3.04271 c 9e-5,-4.94771 0.0358,-6.93439 0.0793,-4.41484 0.0435,2.51956 0.0435,6.56768 -1.7e-4,8.99584 -0.0436,2.42816 -0.0792,0.36671 -0.0791,-4.581 z m 12.42782,3.70416 c -2.4e-4,-2.91041 0.0384,-4.13714 0.0859,-2.72605 0.0475,1.41109 0.0477,3.79234 5.3e-4,5.29167 -0.0472,1.49933 -0.0861,0.3448 -0.0863,-2.56562 z m 12.43541,0 c -2.3e-4,-2.91041 0.0384,-4.13714 0.0859,-2.72605 0.0475,1.41109 0.0477,3.79234 5.3e-4,5.29167 -0.0472,1.49933 -0.0861,0.3448 -0.0863,-2.56562 z m 30.69926,-3.70416 c 1e-4,-4.94771 0.0358,-6.93439 0.0793,-4.41484 0.0435,2.51956 0.0434,6.56768 -1.8e-4,8.99584 -0.0436,2.42816 -0.0792,0.36671 -0.0791,-4.581 z m 12.957414,3.57187 c 0,-2.98318 0.03859,-4.20357 0.08575,-2.71198 0.04716,1.49159 0.04716,3.93237 0,5.42396 -0.04716,1.49159 -0.08575,0.2712 -0.08575,-2.71198 z m -94.261484,4.49792 c 0,-0.3638 0.06,-0.51263 0.13345,-0.33073 0.0734,0.1819 0.0734,0.47956 0,0.66146 -0.0734,0.1819 -0.13345,0.0331 -0.13345,-0.33073 z m 107.513216,0.26761 c -0.09269,-0.14998 0.01352,-0.19434 0.248968,-0.10398 0.458369,0.17589 0.542234,0.36553 0.16165,0.36553 -0.136933,0 -0.321712,-0.1177 -0.410618,-0.26155 z m 7.688056,-0.34517 c 0.09935,-0.26094 0.247306,-0.40778 0.328771,-0.32632 0.08147,0.0815 1.59e-4,0.29496 -0.180657,0.47443 -0.261303,0.25937 -0.291703,0.22898 -0.148114,-0.14811 z m -170.739402,-0.10483 c 0.25466,-0.0665 0.67138,-0.0665 0.92604,0 0.25466,0.0666 0.0463,0.121 -0.46302,0.121 -0.50932,0 -0.71768,-0.0545 -0.46302,-0.121 z m 2.1217,-0.001 c 0.25743,-0.0671 0.61462,-0.0627 0.79375,0.01 0.17913,0.0725 -0.0315,0.12736 -0.46805,0.12197 -0.43657,-0.005 -0.58313,-0.0647 -0.3257,-0.13177 z m 4.71221,-0.23556 c 0.0127,-0.30823 0.0754,-0.37092 0.15985,-0.15986 0.0764,0.191 0.067,0.4192 -0.0209,0.50712 -0.0879,0.0879 -0.15046,-0.0683 -0.13897,-0.34726 z m 19.82286,0.31911 c 0,-0.0549 0.20836,-0.2633 0.46302,-0.46302 0.41965,-0.32911 0.42901,-0.31975 0.0999,0.0999 -0.34565,0.44073 -0.56292,0.58088 -0.56292,0.36312 z m 16.99948,-0.0825 c 0.25466,-0.0665 0.67138,-0.0665 0.92604,0 0.25466,0.0666 0.0463,0.121 -0.46302,0.121 -0.50932,0 -0.71768,-0.0545 -0.46302,-0.121 z m 1.85208,0 c 0.25466,-0.0665 0.67138,-0.0665 0.92604,0 0.25467,0.0666 0.0463,0.121 -0.46302,0.121 -0.50932,0 -0.71768,-0.0545 -0.46302,-0.121 z m 5.00328,-0.84219 c -0.0381,-0.80389 -0.0882,-0.85775 -0.50536,-0.54366 -0.4392,0.3307 -0.43953,0.32297 -0.006,-0.15029 0.58526,-0.63935 0.79926,-0.41297 0.66262,0.7009 l -0.10861,0.88534 -0.0423,-0.89229 z m 25.34677,-0.10168 0.63564,-0.72939 -0.76936,-0.85811 -0.76936,-0.85812 0.91445,0.85944 0.91446,0.85943 -0.78074,0.72807 -0.78073,0.72806 z m 55.56367,-0.001 0.63682,-0.73064 -0.90379,-0.98916 -0.90379,-0.98915 1.04805,0.99138 1.04805,0.99139 -0.78108,0.7284 -0.78108,0.72841 z m -119.20014,-8.00055 c -1.1e-4,-4.36562 0.0361,-6.18868 0.0805,-4.05125 0.0444,2.13744 0.0445,5.70932 2.2e-4,7.9375 -0.0443,2.22819 -0.0807,0.47938 -0.0808,-3.88625 z m 104.88861,7.34219 c -0.32911,-0.41964 -0.31975,-0.429 0.0999,-0.0999 0.44073,0.34565 0.58089,0.56292 0.36313,0.56292 -0.0549,0 -0.2633,-0.20836 -0.46302,-0.46302 z m -78.69644,-0.92604 -0.7771,-0.8599 0.85989,0.77711 c 0.47295,0.42741 0.8599,0.81436 0.8599,0.85989 0,0.20441 -0.21832,0.0245 -0.94269,-0.7771 z m -78.48192,0.41457 c 0.191,-0.0764 0.4192,-0.067 0.50712,0.0209 0.0879,0.0879 -0.0684,0.15045 -0.34726,0.13896 -0.30823,-0.0127 -0.37092,-0.0754 -0.15986,-0.15985 z m 34.81718,-0.41457 -0.50403,-0.59531 0.59532,0.50403 c 0.32742,0.27721 0.59531,0.5451 0.59531,0.59531 0,0.21173 -0.21293,0.0554 -0.6866,-0.50403 z m -37.19843,0.14999 c 0.191,-0.0764 0.4192,-0.067 0.50712,0.0209 0.0879,0.0879 -0.0683,0.15046 -0.34726,0.13897 -0.30823,-0.0127 -0.37092,-0.0754 -0.15986,-0.15985 z m -1.5875,-0.26458 c 0.191,-0.0764 0.4192,-0.067 0.50712,0.0209 0.0879,0.0879 -0.0684,0.15045 -0.34726,0.13897 -0.30823,-0.0127 -0.37092,-0.0754 -0.15986,-0.15986 z m 112.96055,-0.27057 c 0.32742,-0.0631 0.8632,-0.0631 1.19062,0 0.32742,0.0631 0.0595,0.11466 -0.59531,0.11466 -0.65484,0 -0.92274,-0.0516 -0.59531,-0.11466 z m 55.56558,-5.3e-4 c 0.32912,-0.0633 0.80537,-0.0609 1.05833,0.005 0.25297,0.0662 -0.0163,0.11801 -0.5984,0.11507 -0.58208,-0.003 -0.78905,-0.0571 -0.45993,-0.12041 z m 42.72712,0.005 c 0.254662,-0.0665 0.671381,-0.0665 0.926042,0 0.254661,0.0666 0.0463,0.12101 -0.463021,0.12101 -0.509323,0 -0.717682,-0.0545 -0.463021,-0.12101 z m -140.82447,-0.18196 c 0,-0.0549 0.20836,-0.2633 0.46302,-0.46302 0.41964,-0.32911 0.429,-0.31975 0.0999,0.0999 -0.34564,0.44073 -0.56291,0.58088 -0.56291,0.36312 z m 40.08624,-0.42624 c -0.0927,-0.14998 0.0135,-0.19434 0.24897,-0.10398 0.45837,0.17589 0.54224,0.36554 0.16165,0.36554 -0.13693,0 -0.32171,-0.1177 -0.41062,-0.26156 z m -1.08534,-0.86292 -0.50403,-0.59532 0.59531,0.50403 c 0.55945,0.47366 0.71576,0.6866 0.50403,0.6866 -0.0502,0 -0.3181,-0.26789 -0.59531,-0.59531 z m 55.5625,0 -0.50403,-0.59532 0.59531,0.50403 c 0.55945,0.47366 0.71576,0.6866 0.50403,0.6866 -0.0502,0 -0.3181,-0.26789 -0.59531,-0.59531 z m -119.74843,0.14999 c 0.191,-0.0764 0.4192,-0.067 0.50712,0.0209 0.0879,0.0879 -0.0684,0.15045 -0.34726,0.13897 -0.30823,-0.0127 -0.37092,-0.0754 -0.15986,-0.15986 z m 2.11667,0 c 0.19099,-0.0764 0.4192,-0.067 0.50712,0.0209 0.0879,0.0879 -0.0684,0.15045 -0.34727,0.13897 -0.30822,-0.0127 -0.37092,-0.0754 -0.15985,-0.15986 z m 41.53958,0 c 0.191,-0.0764 0.4192,-0.067 0.50712,0.0209 0.0879,0.0879 -0.0684,0.15045 -0.34727,0.13897 -0.30822,-0.0127 -0.37092,-0.0754 -0.15985,-0.15986 z m 2.11667,0 c 0.19099,-0.0764 0.4192,-0.067 0.50712,0.0209 0.0879,0.0879 -0.0684,0.15045 -0.34727,0.13897 -0.30823,-0.0127 -0.37092,-0.0754 -0.15985,-0.15986 z m 118.439951,-4.11844 0.01069,-4.0352 2.116667,-0.016 2.116666,-0.016 -2.043686,0.0928 -2.043687,0.0928 -0.08367,3.95845 -0.08367,3.95846 0.01069,-4.03519 z m -116.802841,3.67011 c 0,-0.0549 0.20836,-0.2633 0.46302,-0.46302 0.41964,-0.32911 0.429,-0.31975 0.0999,0.0999 -0.34564,0.44073 -0.56291,0.58088 -0.56291,0.36312 z m -32.78745,-0.58361 c 0.0127,-0.30822 0.0754,-0.37092 0.15985,-0.15985 0.0764,0.19099 0.067,0.4192 -0.0209,0.50712 -0.0879,0.0879 -0.15045,-0.0684 -0.13897,-0.34727 z m 5.0062,0.23944 c 0,-0.14721 0.26789,-0.49448 0.59531,-0.77169 l 0.59531,-0.50403 -0.52634,0.66146 c -0.28949,0.3638 -0.55739,0.71106 -0.59532,0.7717 -0.0379,0.0606 -0.069,-0.0102 -0.069,-0.15744 z m -4.7625,-1.12782 c 0,-0.13693 0.1177,-0.32171 0.26155,-0.41061 0.14998,-0.0927 0.19434,0.0135 0.10399,0.24896 -0.1759,0.45837 -0.36554,0.54224 -0.36554,0.16165 z m 43.16885,-0.28019 c 0,-0.36381 0.0601,-0.51264 0.13346,-0.33073 0.0734,0.1819 0.0734,0.47955 0,0.66145 -0.0734,0.18191 -0.13346,0.0331 -0.13346,-0.33072 z m 55.54162,0.11024 c 0.0127,-0.30823 0.0754,-0.37092 0.15985,-0.15985 0.0764,0.19099 0.067,0.41919 -0.0209,0.50711 -0.0879,0.0879 -0.15045,-0.0683 -0.13896,-0.34726 z m -78.58125,-0.52917 c 0.0127,-0.30822 0.0754,-0.37092 0.15985,-0.15985 0.0764,0.19099 0.067,0.4192 -0.0209,0.50712 -0.0879,0.0879 -0.15045,-0.0684 -0.13896,-0.34727 z m 41.60338,-1.16857 c 0,-0.94589 0.048,-1.33284 0.10671,-0.8599 0.0587,0.47294 0.0587,1.24685 0,1.71979 -0.0587,0.47294 -0.10671,0.086 -0.10671,-0.85989 z m 55.5598,0.13229 c 0.002,-0.87313 0.0509,-1.19842 0.10976,-0.72287 0.0589,0.47555 0.0577,1.18993 -0.003,1.5875 -0.0604,0.39758 -0.10855,0.008 -0.10706,-0.86463 z m -140.77893,0.39687 c 0,-0.50932 0.0545,-0.71768 0.121,-0.46302 0.0666,0.25466 0.0666,0.67138 0,0.92604 -0.0666,0.25466 -0.121,0.0463 -0.121,-0.46302 z m 24.41257,0 c 0.26339,-0.29104 0.53842,-0.52916 0.61118,-0.52916 0.0728,0 -0.0832,0.23812 -0.3466,0.52916 -0.26339,0.29104 -0.53842,0.52917 -0.61118,0.52917 -0.0728,0 0.0832,-0.23813 0.3466,-0.52917 z m 24.26095,-0.92604 c 0.005,-0.43656 0.0647,-0.58313 0.13178,-0.32569 0.0671,0.25743 0.0627,0.61462 -0.01,0.79375 -0.0725,0.17913 -0.12736,-0.0315 -0.12197,-0.46806 z m -92.39116,-2.51354 v -2.39018 l 6.81303,0.0706 6.81302,0.0706 v 2.24896 2.24896 l -6.81302,0.0706 -6.81303,0.0706 z m 43.71764,1.5875 c 0,-0.50932 0.0545,-0.71768 0.121,-0.46302 0.0666,0.25466 0.0666,0.67138 0,0.92604 -0.0666,0.25466 -0.121,0.0463 -0.121,-0.46302 z m 66.6345,0.11024 c 0.0127,-0.30822 0.0754,-0.37092 0.15985,-0.15985 0.0764,0.19099 0.067,0.4192 -0.0209,0.50712 -0.0879,0.0879 -0.15045,-0.0684 -0.13896,-0.34727 z m 27.25208,0 c 0.0127,-0.30822 0.0754,-0.37092 0.15985,-0.15985 0.0764,0.19099 0.067,0.4192 -0.0209,0.50712 -0.0879,0.0879 -0.15046,-0.0684 -0.13897,-0.34727 z m 55.562498,0 c 0.0127,-0.30822 0.07539,-0.37092 0.159851,-0.15985 0.07643,0.19099 0.06703,0.4192 -0.02088,0.50712 -0.08792,0.0879 -0.150453,-0.0684 -0.138965,-0.34727 z m -121.514238,-0.0264 c 0.19099,-0.0764 0.4192,-0.067 0.50711,0.0209 0.0879,0.0879 -0.0684,0.15046 -0.34726,0.13897 -0.30823,-0.0127 -0.37092,-0.0754 -0.15985,-0.15985 z m 78.38716,-0.23819 c 0.0127,-0.30822 0.0754,-0.37092 0.15985,-0.15985 0.0764,0.191 0.067,0.4192 -0.0209,0.50712 -0.0879,0.0879 -0.15045,-0.0684 -0.13896,-0.34727 z m 15.875,0 c 0.0127,-0.30822 0.0754,-0.37092 0.15985,-0.15985 0.0764,0.191 0.067,0.4192 -0.0209,0.50712 -0.0879,0.0879 -0.15045,-0.0684 -0.13896,-0.34727 z m -90.57453,-0.0394 c 0.61846,-0.0557 1.63049,-0.0557 2.24895,0 0.61847,0.0557 0.11245,0.10128 -1.12448,0.10128 -1.23692,0 -1.74294,-0.0456 -1.12447,-0.10128 z m 40.01768,-0.005 c -2.6e-4,-0.10914 1.33916,-0.16721 2.97657,-0.12905 5.41851,0.1263 5.94569,0.22677 1.45574,0.27746 -2.43747,0.0275 -4.43201,-0.0393 -4.43231,-0.14841 z m 55.5625,0 c -2.6e-4,-0.10914 1.33916,-0.16721 2.97656,-0.12905 5.41852,0.1263 5.94569,0.22677 1.45575,0.27746 -2.43747,0.0275 -4.43201,-0.0393 -4.43231,-0.14841 z m -83.5869,-0.48507 c 0.0127,-0.30822 0.0754,-0.37092 0.15985,-0.15985 0.0764,0.19099 0.067,0.4192 -0.0209,0.50712 -0.0879,0.0879 -0.15045,-0.0683 -0.13896,-0.34727 z m 74.90777,-0.50712 c 0.005,-0.43656 0.0647,-0.58312 0.13177,-0.32569 0.0671,0.25743 0.0627,0.61462 -0.01,0.79375 -0.0725,0.17913 -0.12736,-0.0315 -0.12197,-0.46806 z m -122.26819,-0.28663 c 0.0127,-0.30822 0.0754,-0.37092 0.15986,-0.15985 0.0764,0.19099 0.067,0.4192 -0.0209,0.50712 -0.0879,0.0879 -0.15045,-0.0684 -0.13896,-0.34727 z m 154.231192,-0.50712 c 0.341776,-0.3638 0.68094,-0.66145 0.7537,-0.66145 0.07276,0 -0.147341,0.29765 -0.489116,0.66145 -0.341776,0.36381 -0.68094,0.66146 -0.7537,0.66146 -0.07276,0 0.147341,-0.29765 0.489116,-0.66146 z m 11.662555,0.24254 c 0.0127,-0.30823 0.07539,-0.37092 0.159851,-0.15985 0.07643,0.19099 0.06703,0.41919 -0.02088,0.50711 -0.08792,0.0879 -0.150452,-0.0684 -0.138964,-0.34726 z m -172.020077,-0.57327 -0.64143,-0.7276 0.72761,0.64143 c 0.68005,0.59952 0.84893,0.81378 0.64143,0.81378 -0.0474,0 -0.37482,-0.32742 -0.72761,-0.72761 z m 174.700039,-2.64583 0.07727,-2.05052 1.322917,-0.0206 1.322917,-0.0206 -1.256771,0.10061 -1.256771,0.10062 v 1.82443 1.82443 l 1.389062,0.0972 1.389063,0.0972 -1.532483,0.0489 -1.532485,0.0489 0.07728,-2.05052 z m -156.208789,1.6052 c 0.191,-0.0764 0.4192,-0.067 0.50712,0.0209 0.0879,0.0879 -0.0684,0.15046 -0.34726,0.13897 -0.30823,-0.0127 -0.37092,-0.0754 -0.15986,-0.15985 z m 2.11667,0 c 0.19099,-0.0764 0.4192,-0.067 0.50712,0.0209 0.0879,0.0879 -0.0684,0.15046 -0.34727,0.13897 -0.30822,-0.0127 -0.37092,-0.0754 -0.15985,-0.15985 z m 43.65625,0 c 0.19099,-0.0764 0.4192,-0.067 0.50712,0.0209 0.0879,0.0879 -0.0684,0.15046 -0.34727,0.13897 -0.30823,-0.0127 -0.37092,-0.0754 -0.15985,-0.15985 z m -24.09054,-0.27097 c 0.32912,-0.0633 0.80537,-0.0609 1.05834,0.005 0.25296,0.0662 -0.0163,0.118 -0.5984,0.11507 -0.58208,-0.003 -0.78905,-0.0571 -0.45994,-0.12041 z m 14.87973,-0.68942 c 0,-0.0455 0.38695,-0.43248 0.8599,-0.85989 l 0.85989,-0.77711 -0.7771,0.8599 c -0.72437,0.80154 -0.94269,0.98151 -0.94269,0.7771 z m 37.4219,-0.7771 -0.77711,-0.8599 0.8599,0.77711 c 0.47294,0.42741 0.85989,0.81436 0.85989,0.85989 0,0.20441 -0.21831,0.0245 -0.94268,-0.7771 z m 55.56249,0 -0.7771,-0.8599 0.85989,0.77711 c 0.47295,0.42741 0.8599,0.81436 0.8599,0.85989 0,0.20441 -0.21832,0.0245 -0.94269,-0.7771 z m -135.97918,0.0662 c 0.26339,-0.29105 0.53842,-0.52917 0.61118,-0.52917 0.0728,0 -0.0832,0.23812 -0.3466,0.52917 -0.26339,0.29104 -0.53842,0.52916 -0.61118,0.52916 -0.0728,0 0.0832,-0.23812 0.3466,-0.52916 z m 66.54271,0.42927 c 0,-0.0549 0.20836,-0.2633 0.46302,-0.46302 0.41964,-0.32911 0.429,-0.31975 0.0999,0.0999 -0.34564,0.44073 -0.56291,0.58089 -0.56291,0.36313 z m 55.95937,-0.42927 c 0.26339,-0.29105 0.53842,-0.52917 0.61118,-0.52917 0.0728,0 -0.0832,0.23812 -0.3466,0.52917 -0.26339,0.29104 -0.53842,0.52916 -0.61118,0.52916 -0.0728,0 0.0832,-0.23812 0.3466,-0.52916 z m -67.0919,-0.72572 c -0.53607,-0.6065 -0.54651,-0.64582 -0.0636,-0.23939 0.57681,0.48546 0.57802,0.48451 0.68312,-0.53106 0.0997,-0.96322 0.10766,-0.95048 0.14977,0.23939 0.0245,0.69123 0.006,1.25678 -0.0417,1.25678 -0.0474,0 -0.37481,-0.32657 -0.7276,-0.72572 z m 47.64502,0.62582 c 0,-0.0549 0.20836,-0.2633 0.46303,-0.46302 0.41964,-0.32911 0.429,-0.31975 0.0999,0.0999 -0.34564,0.44073 -0.56292,0.58089 -0.56292,0.36313 z m -121.97291,-0.26458 c 0,-0.0549 0.20836,-0.2633 0.46302,-0.46302 0.41965,-0.32911 0.42901,-0.31975 0.0999,0.0999 -0.34564,0.44073 -0.56292,0.58089 -0.56292,0.36313 z m 110.33125,0 c 0,-0.0549 0.20836,-0.2633 0.46302,-0.46302 0.41964,-0.32911 0.429,-0.31975 0.0999,0.0999 -0.34565,0.44073 -0.56292,0.58089 -0.56292,0.36313 z m 10.54958,-0.36313 c -0.32911,-0.41964 -0.31975,-0.429 0.0999,-0.0999 0.25466,0.19972 0.46302,0.40808 0.46302,0.46302 0,0.21776 -0.21728,0.0776 -0.56292,-0.36313 z m 12.43542,0 c -0.32911,-0.41964 -0.31975,-0.429 0.0999,-0.0999 0.44073,0.34564 0.58089,0.56291 0.36313,0.56291 -0.0549,0 -0.2633,-0.20836 -0.46302,-0.46302 z m 32.577496,0.36313 c 0,-0.0549 0.208359,-0.2633 0.463021,-0.46302 0.419645,-0.32911 0.429003,-0.31975 0.0999,0.0999 -0.345644,0.44073 -0.562917,0.58089 -0.562917,0.36313 z m -135.764996,-0.8923 c -0.32911,-0.41964 -0.31975,-0.429 0.0999,-0.0999 0.44073,0.34564 0.58089,0.56292 0.36312,0.56292 -0.0549,0 -0.2633,-0.20836 -0.46302,-0.46303 z m 22.78792,-0.33072 c -0.23847,-0.15411 -0.2711,-0.2581 -0.0818,-0.26054 0.17331,-0.002 0.3887,0.11501 0.47863,0.26054 0.20302,0.32848 0.11142,0.32848 -0.39687,0 z m 136.524991,-2.37167 v -2.10709 l -2.579687,-0.0865 -2.579687,-0.0865 2.711979,-0.0554 2.711979,-0.0554 v 2.10596 2.10597 l 2.182812,0.0891 2.182812,0.0891 -2.315104,0.0539 -2.315104,0.0539 z m -185.009891,1.40269 c 0.1819,-0.0734 0.47956,-0.0734 0.66146,0 0.1819,0.0734 0.0331,0.13345 -0.33073,0.13345 -0.3638,0 -0.51263,-0.06 -0.33073,-0.13345 z m 2.38125,0 c 0.1819,-0.0734 0.47956,-0.0734 0.66146,0 0.1819,0.0734 0.0331,0.13345 -0.33073,0.13345 -0.3638,0 -0.51263,-0.06 -0.33073,-0.13345 z m 17.19792,0 c 0.1819,-0.0734 0.47956,-0.0734 0.66146,0 0.1819,0.0734 0.0331,0.13345 -0.33073,0.13345 -0.3638,0 -0.51263,-0.06 -0.33073,-0.13345 z m 2.38125,0 c 0.1819,-0.0734 0.47956,-0.0734 0.66146,0 0.1819,0.0734 0.0331,0.13345 -0.33073,0.13345 -0.3638,0 -0.51263,-0.06 -0.33073,-0.13345 z m 19.98108,-0.008 c 0.25743,-0.0671 0.61461,-0.0627 0.79375,0.01 0.17913,0.0725 -0.0315,0.12737 -0.46806,0.12197 -0.43656,-0.005 -0.58313,-0.0647 -0.32569,-0.13177 z m 2.91041,0 c 0.25743,-0.0671 0.61462,-0.0627 0.79375,0.01 0.17913,0.0725 -0.0315,0.12737 -0.46805,0.12197 -0.43657,-0.005 -0.58313,-0.0647 -0.3257,-0.13177 z m 18.38351,0.008 c 0.1819,-0.0734 0.47955,-0.0734 0.66146,0 0.1819,0.0734 0.0331,0.13345 -0.33073,0.13345 -0.36381,0 -0.51263,-0.06 -0.33073,-0.13345 z m 2.38125,0 c 0.1819,-0.0734 0.47955,-0.0734 0.66146,0 0.1819,0.0734 0.0331,0.13345 -0.33073,0.13345 -0.36381,0 -0.51263,-0.06 -0.33073,-0.13345 z m 21.16666,0 c 0.1819,-0.0734 0.47956,-0.0734 0.66146,0 0.1819,0.0734 0.0331,0.13345 -0.33073,0.13345 -0.3638,0 -0.51263,-0.06 -0.33073,-0.13345 z m 2.51858,-0.008 c 0.25743,-0.0671 0.61462,-0.0627 0.79375,0.01 0.17913,0.0725 -0.0315,0.12737 -0.46806,0.12197 -0.43656,-0.005 -0.58312,-0.0647 -0.32569,-0.13177 z m 20.76476,0.008 c 0.1819,-0.0734 0.47955,-0.0734 0.66145,0 0.1819,0.0734 0.0331,0.13345 -0.33073,0.13345 -0.3638,0 -0.51263,-0.06 -0.33072,-0.13345 z m 2.11666,0 c 0.1819,-0.0734 0.47956,-0.0734 0.66146,0 0.1819,0.0734 0.0331,0.13345 -0.33073,0.13345 -0.3638,0 -0.51263,-0.06 -0.33073,-0.13345 z m 10.05417,0 c 0.1819,-0.0734 0.47956,-0.0734 0.66146,0 0.1819,0.0734 0.0331,0.13345 -0.33073,0.13345 -0.3638,0 -0.51263,-0.06 -0.33073,-0.13345 z m 2.38125,0 c 0.1819,-0.0734 0.47956,-0.0734 0.66146,0 0.1819,0.0734 0.0331,0.13345 -0.33073,0.13345 -0.3638,0 -0.51263,-0.06 -0.33073,-0.13345 z m 17.72708,0 c 0.1819,-0.0734 0.47956,-0.0734 0.66146,0 0.1819,0.0734 0.0331,0.13345 -0.33073,0.13345 -0.3638,0 -0.51263,-0.06 -0.33073,-0.13345 z m 2.51858,-0.008 c 0.25743,-0.0671 0.61462,-0.0627 0.79375,0.01 0.17913,0.0725 -0.0315,0.12737 -0.46806,0.12197 -0.43656,-0.005 -0.58312,-0.0647 -0.32569,-0.13177 z m 21.029336,0.008 c 0.181901,-0.0734 0.479558,-0.0734 0.661459,0 0.181901,0.0734 0.03307,0.13345 -0.330729,0.13345 -0.363803,0 -0.512631,-0.06 -0.33073,-0.13345 z m 2.38125,0 c 0.181901,-0.0734 0.479558,-0.0734 0.661459,0 0.181901,0.0734 0.03307,0.13345 -0.33073,0.13345 -0.363802,0 -0.51263,-0.06 -0.330729,-0.13345 z m -210.964186,-1.21384 -0.50403,-0.59531 0.59531,0.50403 c 0.55944,0.47366 0.71576,0.6866 0.50403,0.6866 -0.0502,0 -0.3181,-0.2679 -0.59531,-0.59532 z m 5.51581,-1.91823 c 0.003,-0.58208 0.0571,-0.78905 0.12041,-0.45993 0.0633,0.32912 0.0609,0.80537 -0.005,1.05833 -0.0662,0.25297 -0.11801,-0.0163 -0.11507,-0.5984 z m 13.11284,0.74531 c 0.19099,-0.0764 0.4192,-0.067 0.50712,0.0209 0.0879,0.0879 -0.0684,0.15045 -0.34727,0.13897 -0.30822,-0.0127 -0.37092,-0.0754 -0.15985,-0.15985 z m 3.95221,-0.52366 c 0.1819,-0.0734 0.47956,-0.0734 0.66146,0 0.1819,0.0734 0.0331,0.13345 -0.33073,0.13345 -0.3638,0 -0.51263,-0.0601 -0.33073,-0.13345 z m -22.55573,-2.4706 c 0.26339,-0.29105 0.53843,-0.52917 0.61119,-0.52917 0.0728,0 -0.0832,0.23812 -0.3466,0.52917 -0.26339,0.29104 -0.53843,0.52916 -0.61119,0.52916 -0.0728,0 0.0832,-0.23812 0.3466,-0.52916 z m 1.92132,-0.98088 c 0.32912,-0.0633 0.80537,-0.0609 1.05833,0.005 0.25297,0.0662 -0.0163,0.118 -0.5984,0.11506 -0.58208,-0.003 -0.78905,-0.0571 -0.45993,-0.1204 z m 19.32803,-1.58111 c 0.191,-0.0764 0.4192,-0.067 0.50712,0.0209 0.0879,0.0879 -0.0684,0.15046 -0.34727,0.13897 -0.30822,-0.0127 -0.37091,-0.0754 -0.15985,-0.15985 z m 3.43004,-0.27792 c 0.62231,-0.0559 1.57481,-0.0551 2.11667,0.002 0.54185,0.0568 0.0327,0.10258 -1.13147,0.10162 -1.16417,-9.5e-4 -1.60751,-0.0475 -0.9852,-0.10337 z m -58.6122,-13.2246 c 0.40018,-0.0606 1.05503,-0.0606 1.45521,0 0.40018,0.0606 0.0728,0.11022 -0.7276,0.11022 -0.80037,0 -1.12779,-0.0496 -0.72761,-0.11022 z m 7.01845,-0.26915 c 0.62231,-0.0559 1.57481,-0.0551 2.11667,0.002 0.54186,0.0568 0.0327,0.10258 -1.13147,0.10162 -1.16417,-9.5e-4 -1.60751,-0.0475 -0.9852,-0.10337 z m 7.67292,-0.26458 c 0.62231,-0.0559 1.57481,-0.0551 2.11667,0.002 0.54185,0.0569 0.0327,0.10259 -1.13148,0.10163 -1.16416,-9.6e-4 -1.6075,-0.0475 -0.98519,-0.10337 z m 7.79821,-0.26325 c 0.54571,-0.0571 1.43868,-0.0571 1.98438,0 0.5457,0.0571 0.0992,0.10378 -0.99219,0.10378 -1.0914,0 -1.53789,-0.0467 -0.99219,-0.10378 z m 7.81221,-0.26592 c 0.62231,-0.0559 1.57481,-0.0551 2.11666,0.002 0.54186,0.0568 0.0327,0.10258 -1.13147,0.10162 -1.16417,-9.5e-4 -1.6075,-0.0475 -0.98519,-0.10337 z m 7.67291,-0.26458 c 0.62231,-0.0559 1.57481,-0.0551 2.11667,0.002 0.54185,0.0569 0.0327,0.10259 -1.13147,0.10163 -1.16417,-9.6e-4 -1.60751,-0.0475 -0.9852,-0.10337 z m 7.79822,-0.26325 c 0.5457,-0.0571 1.43867,-0.0571 1.98437,0 0.54571,0.0571 0.0992,0.10378 -0.99219,0.10378 -1.0914,0 -1.53789,-0.0467 -0.99218,-0.10378 z m 7.8122,-0.26592 c 0.62231,-0.0559 1.57481,-0.0551 2.11666,0.002 0.54186,0.0569 0.0327,0.10258 -1.13147,0.10162 -1.16416,-9.5e-4 -1.6075,-0.0475 -0.98519,-0.10337 z m 7.67291,-0.26458 c 0.62231,-0.0559 1.57481,-0.0551 2.11667,0.002 0.54186,0.0569 0.0327,0.10259 -1.13147,0.10163 -1.16417,-9.6e-4 -1.60751,-0.0475 -0.9852,-0.10337 z m 7.79822,-0.26325 c 0.5457,-0.0571 1.43867,-0.0571 1.98437,0 0.54571,0.0571 0.0992,0.10378 -0.99218,0.10378 -1.09141,0 -1.53789,-0.0467 -0.99219,-0.10378 z m 7.8122,-0.26592 c 0.62231,-0.0559 1.57481,-0.0551 2.11667,0.002 0.54185,0.0568 0.0327,0.10258 -1.13148,0.10162 -1.16416,-9.5e-4 -1.6075,-0.0475 -0.98519,-0.10337 z m 7.67292,-0.26458 c 0.62231,-0.0559 1.57481,-0.0551 2.11666,0.002 0.54186,0.0569 0.0327,0.10259 -1.13147,0.10163 -1.16417,-9.6e-4 -1.6075,-0.0475 -0.98519,-0.10337 z m 7.79821,-0.26325 c 0.5457,-0.0571 1.43867,-0.0571 1.98438,0 0.5457,0.0571 0.0992,0.10378 -0.99219,0.10378 -1.09141,0 -1.53789,-0.0467 -0.99219,-0.10378 z m 7.8122,-0.26592 c 0.62231,-0.0559 1.57481,-0.0551 2.11667,0.002 0.54186,0.0568 0.0327,0.10258 -1.13147,0.10162 -1.16417,-9.5e-4 -1.60751,-0.0475 -0.9852,-0.10337 z m 7.67292,-0.26458 c 0.62231,-0.0559 1.57481,-0.0551 2.11667,0.002 0.54185,0.0569 0.0327,0.10259 -1.13148,0.10163 -1.16416,-9.6e-4 -1.6075,-0.0475 -0.98519,-0.10337 z m 7.79821,-0.26325 c 0.54571,-0.0571 1.43868,-0.0571 1.98438,0 0.5457,0.0571 0.0992,0.10378 -0.99219,0.10378 -1.0914,0 -1.53789,-0.0467 -0.99219,-0.10378 z m 7.8122,-0.26592 c 0.62232,-0.0559 1.57482,-0.0551 2.11667,0.002 0.54186,0.0568 0.0327,0.10258 -1.13147,0.10162 -1.16417,-9.5e-4 -1.60751,-0.0475 -0.9852,-0.10337 z m 7.67292,-0.26458 c 0.62231,-0.0559 1.57481,-0.0551 2.11667,0.002 0.54185,0.0569 0.0327,0.10259 -1.13147,0.10163 -1.16417,-9.6e-4 -1.60751,-0.0475 -0.9852,-0.10337 z m 7.79822,-0.26325 c 0.5457,-0.0571 1.43867,-0.0571 1.98437,0 0.5457,0.0571 0.0992,0.10378 -0.99219,0.10378 -1.0914,0 -1.53789,-0.0467 -0.99218,-0.10378 z m 7.8122,-0.26592 c 0.62231,-0.0559 1.57481,-0.0551 2.11666,0.002 0.54186,0.0568 0.0327,0.10258 -1.13147,0.10162 -1.16417,-9.5e-4 -1.6075,-0.0475 -0.98519,-0.10337 z m 7.67291,-0.26458 c 0.62231,-0.0559 1.57481,-0.0551 2.11667,0.002 0.54186,0.0568 0.0327,0.10258 -1.13147,0.10162 -1.16417,-9.6e-4 -1.60751,-0.0475 -0.9852,-0.10337 z m 7.79822,-0.26325 c 0.5457,-0.0571 1.43867,-0.0571 1.98437,0 0.54571,0.0571 0.0992,0.10378 -0.99218,0.10378 -1.09141,0 -1.53789,-0.0467 -0.99219,-0.10378 z m 7.8122,-0.26592 c 0.62231,-0.0559 1.57481,-0.0551 2.11667,0.002 0.54185,0.0569 0.0327,0.10258 -1.13148,0.10162 -1.16416,-9.5e-4 -1.6075,-0.0475 -0.98519,-0.10337 z m 7.67292,-0.26458 c 0.62231,-0.0559 1.57481,-0.0551 2.11666,0.002 0.54186,0.0568 0.0327,0.10258 -1.13147,0.10162 -1.16417,-9.6e-4 -1.6075,-0.0475 -0.98519,-0.10337 z m 7.79821,-0.26325 c 0.5457,-0.0571 1.43867,-0.0571 1.98438,0 0.5457,0.0571 0.0992,0.10378 -0.99219,0.10378 -1.09141,0 -1.53789,-0.0467 -0.99219,-0.10378 z m 7.67292,-0.26459 c 0.5457,-0.0571 1.43867,-0.0571 1.98437,0 0.5457,0.0571 0.0992,0.10379 -0.99219,0.10379 -1.0914,0 -1.53789,-0.0467 -0.99218,-0.10379 z m 7.8122,-0.26591 c 0.62231,-0.0559 1.57481,-0.0551 2.11666,0.002 0.54186,0.0568 0.0327,0.10258 -1.13147,0.10162 -1.16416,-9.6e-4 -1.6075,-0.0475 -0.98519,-0.10337 z m 7.67291,-0.26458 c 0.62231,-0.0559 1.57481,-0.0551 2.11667,0.002 0.54186,0.0568 0.0327,0.10258 -1.13147,0.10162 -1.16417,-9.5e-4 -1.60751,-0.0475 -0.9852,-0.10337 z m 7.79822,-0.26326 c 0.5457,-0.0571 1.43867,-0.0571 1.98437,0 0.54571,0.0571 0.0992,0.10379 -0.99218,0.10379 -1.09141,0 -1.53789,-0.0467 -0.99219,-0.10379 z m 7.8122,-0.26591 c 0.62231,-0.0559 1.57481,-0.0551 2.11667,0.002 0.54185,0.0569 0.0327,0.10258 -1.13148,0.10162 -1.16416,-9.6e-4 -1.6075,-0.0475 -0.98519,-0.10337 z m 7.67292,-0.26458 c 0.62231,-0.0559 1.57481,-0.0551 2.11666,0.002 0.541859,0.0568 0.0327,0.10258 -1.13147,0.10162 -1.16417,-9.6e-4 -1.6075,-0.0475 -0.98519,-0.10337 z m 7.798211,-0.26326 c 0.545704,-0.0571 1.438672,-0.0571 1.984375,0 0.545703,0.0571 0.09922,0.10379 -0.992187,0.10379 -1.091406,0 -1.537891,-0.0467 -0.992188,-0.10379 z m 7.812201,-0.26591 c 0.622311,-0.0559 1.574811,-0.0551 2.116667,0.002 0.541856,0.0568 0.0327,0.10258 -1.131472,0.10162 -1.164167,-9.6e-4 -1.607505,-0.0475 -0.985195,-0.10337 z m 7.672917,-0.26458 c 0.62231,-0.0559 1.57481,-0.0551 2.116666,0.002 0.541856,0.0569 0.0327,0.10258 -1.131472,0.10162 -1.164166,-9.6e-4 -1.607505,-0.0475 -0.985194,-0.10337 z m 7.798215,-0.26326 c 0.545703,-0.0571 1.438672,-0.0571 1.984375,0 0.545703,0.0571 0.09922,0.10379 -0.992188,0.10379 -1.091406,0 -1.53789,-0.0467 -0.992187,-0.10379 z m 7.812193,-0.26591 c 0.622326,-0.0559 1.574826,-0.0551 2.116666,0.002 0.541867,0.0568 0.0327,0.10258 -1.131464,0.10162 -1.164166,-9.6e-4 -1.607502,-0.0475 -0.985202,-0.10337 z m 7.672916,-0.26458 c 0.622326,-0.0559 1.574826,-0.0551 2.116667,0.002 0.541866,0.0568 0.0327,0.10258 -1.131465,0.10162 -1.164166,-9.6e-4 -1.607502,-0.0475 -0.985202,-0.10337 z m 7.798223,-0.26326 c 0.545703,-0.0571 1.438672,-0.0571 1.984375,0 0.545703,0.0571 0.09922,0.10379 -0.992188,0.10379 -1.091406,0 -1.53789,-0.0467 -0.992187,-0.10379 z"
       id="path2268" />
  </g>
</svg>
