<?xml version="1.0" encoding="UTF-8" standalone="no"?>
<svg
   xmlns:dc="http://purl.org/dc/elements/1.1/"
   xmlns:cc="http://creativecommons.org/ns#"
   xmlns:rdf="http://www.w3.org/1999/02/22-rdf-syntax-ns#"
   xmlns:svg="http://www.w3.org/2000/svg"
   xmlns="http://www.w3.org/2000/svg"
   xmlns:sodipodi="http://sodipodi.sourceforge.net/DTD/sodipodi-0.dtd"
   xmlns:inkscape="http://www.inkscape.org/namespaces/inkscape"
   sodipodi:docname="jla.svg"
   inkscape:version="1.0 (4035a4fb49, 2020-05-01)"
   inkscape:export-ydpi="96"
   inkscape:export-xdpi="96"
   inkscape:export-filename="C:\Users\Christopher\Documents\perso\sandbox.c-mh.fr\2022\candidates\yja.png"
   id="svg8"
   version="1.1"
   viewBox="0 0 211.66666 87.84167"
   height="332"
   width="800">
  <defs
     id="defs2" />
  <sodipodi:namedview
     inkscape:window-maximized="0"
     inkscape:window-y="0"
     inkscape:window-x="4312"
     inkscape:window-height="2071"
     inkscape:window-width="1918"
     fit-margin-bottom="0"
     fit-margin-right="0"
     fit-margin-left="0"
     fit-margin-top="0"
     units="px"
     showgrid="false"
     inkscape:document-rotation="0"
     inkscape:current-layer="layer1"
     inkscape:document-units="mm"
     inkscape:cy="238.46993"
     inkscape:cx="370.14384"
     inkscape:zoom="0.98994949"
     inkscape:pageshadow="2"
     inkscape:pageopacity="0.0"
     borderopacity="1.0"
     bordercolor="#666666"
     pagecolor="#ffffff"
     id="base" />
  <metadata
     id="metadata5">
    <rdf:RDF>
      <cc:Work
         rdf:about="">
        <dc:format>image/svg+xml</dc:format>
        <dc:type
           rdf:resource="http://purl.org/dc/dcmitype/StillImage" />
        <dc:title></dc:title>
      </cc:Work>
    </rdf:RDF>
  </metadata>
  <g
     transform="translate(17.991661,9.9407806)"
     id="layer1"
     inkscape:groupmode="layer"
     inkscape:label="Calque 1">
    <path
       style="fill:#174194;stroke-width:0.264583"
       d="m -5.0270775,64.75368 c -1.5943212,-0.31291 -3.5140691,-2.712567 -2.6219089,-3.277346 0.6869324,-0.434859 1.1805793,-0.250556 1.4843329,0.55418 0.4355632,1.153938 1.9399417,1.7521 3.2001979,1.272442 0.5077867,-0.193265 1.1741621,-0.687157 1.4808343,-1.097542 0.52632372,-0.704318 0.5622343,-1.11596 0.64050017,-7.342008 l 0.0829149,-6.595853 h 0.64468931 0.64468959 v 6.663341 c 0,6.098736 -0.0443616,6.754976 -0.5235464,7.744841 -0.28795054,0.594825 -0.85349743,1.275892 -1.25677087,1.513483 -0.8091721,0.476723 -2.7469955,0.766408 -3.7759329,0.564462 z M 88.106257,64.69534 c -1.236337,-0.260768 -3.163977,-1.27453 -3.351199,-1.762427 -0.0881,-0.229589 0.157057,-0.676939 0.591767,-1.079814 0.587005,-0.544018 0.828604,-0.626103 1.155496,-0.392587 1.012968,0.723615 2.430405,1.359125 3.031379,1.359125 1.815402,0 3.335057,-1.217869 3.335057,-2.672749 0,-1.099164 -0.619656,-1.765864 -2.171983,-2.336866 -4.268171,-1.569993 -4.472337,-1.695961 -5.264504,-3.248073 -1.249879,-2.44892 0.08521,-5.396362 2.859024,-6.311802 1.449652,-0.478428 4.573426,-0.191767 5.735304,0.526312 1.149813,0.710623 1.175276,1.016796 0.151805,1.825191 l -0.777743,0.614302 -0.769816,-0.548156 c -0.561176,-0.399595 -1.176589,-0.548159 -2.270678,-0.548159 -1.306071,0 -1.60124,0.100378 -2.27426,0.773399 -1.490803,1.4908 -0.795981,3.173354 1.673741,4.053056 0.618603,0.220345 1.683101,0.600856 2.365547,0.845582 2.359001,0.845939 3.398419,2.564874 3.01204,4.981152 -0.445066,2.783292 -3.733681,4.617979 -7.030977,3.922514 z m 12.700003,0.0021 c -1.204775,-0.251455 -2.751672,-0.999205 -3.284029,-1.587453 -0.390502,-0.431498 -0.35985,-0.521123 0.414054,-1.210675 0.670624,-0.597527 0.919123,-0.685281 1.257562,-0.444084 2.121713,1.51208 3.745213,1.689626 5.303553,0.57999 2.1168,-1.507289 0.90646,-3.920239 -2.32208,-4.629343 -1.4631,-0.321352 -2.913478,-1.179581 -3.670302,-2.17183 -0.629016,-0.82468 -0.741469,-1.222311 -0.741469,-2.621798 0,-1.448065 0.09995,-1.773944 0.81779,-2.666429 1.220539,-1.517481 1.990621,-1.810496 4.758211,-1.810496 2.12585,0 2.51224,0.0758 3.37163,0.661458 0.53385,0.363802 0.96485,0.780521 0.9578,0.926042 -0.007,0.145521 -0.36389,0.541904 -0.79295,0.880854 l -0.78012,0.61627 -0.89012,-0.550125 c -1.28186,-0.792236 -3.64416,-0.7708 -4.39946,0.03992 -1.706288,1.831483 -0.7274,3.612433 2.51347,4.572913 1.86993,0.554183 3.35704,1.369542 3.93865,2.159503 1.00733,1.368208 0.81673,3.945144 -0.40685,5.500679 -1.09429,1.391166 -3.89373,2.203678 -6.04534,1.754601 z M 5.0270894,56.337345 v -8.069792 h 4.8947917 4.8947919 v 0.79375 0.79375 H 10.715631 6.6145894 v 2.778125 2.778125 h 3.8364586 3.836458 v 0.661458 0.661459 H 10.451048 6.6145894 v 3.175 3.175 h 4.3656246 4.365626 v 0.661458 0.661458 H 10.186464 5.0270894 Z m 11.8043146,7.077604 c 0.220125,-0.545703 0.61954,-1.47302 0.887589,-2.060705 0.435626,-0.955087 4.605555,-10.526723 5.384295,-12.359087 0.240525,-0.565949 0.485926,-0.726511 1.104535,-0.722685 0.79085,0.0049 0.813853,0.04885 4.1026,7.840178 1.819011,4.309393 3.346979,7.938587 3.395485,8.064873 0.04851,0.126288 -0.338444,0.229613 -0.859896,0.229613 -0.521448,0 -0.948089,-0.130833 -0.948089,-0.290742 0,-0.159909 -0.171156,-0.665925 -0.380344,-1.12448 -0.20919,-0.458554 -0.560303,-1.28022 -0.780251,-1.825923 l -0.399904,-0.992188 h -4.261393 -4.261395 l -0.655846,1.521354 c -1.124437,2.608331 -1.200571,2.711979 -1.992075,2.711979 h -0.735541 z m 10.949852,-4.699945 c 0,-0.07473 -0.11607,-0.342625 -0.257934,-0.595312 C 27.381458,57.867004 26.95941,56.886355 26.58544,55.94047 26.211468,54.994584 25.797191,53.982553 25.664823,53.691511 25.532457,53.40047 25.129568,52.44797 24.769517,51.574845 l -0.65464,-1.5875 -0.451151,1.058333 c -2.254827,5.289479 -2.829909,6.69522 -2.949538,7.209896 -0.138295,0.59499 -0.136414,0.595312 3.464348,0.595312 1.981497,0 3.60272,-0.06115 3.60272,-0.135882 z m 6.35,-2.377659 v -8.069792 l 0.992188,0.0071 c 0.875517,0.0063 1.069967,0.135141 1.653646,1.095862 0.363802,0.598813 0.783169,1.220687 0.931929,1.381948 0.148756,0.161258 0.707961,0.948042 1.242676,1.748406 0.534715,0.800365 1.687692,2.46724 2.562172,3.704167 0.874482,1.236927 2.160746,3.082396 2.858365,4.101042 l 1.2684,1.852083 0.07054,-6.945313 0.07054,-6.945312 h 0.789355 0.789358 v 8.085765 8.085761 l -0.985813,-0.08212 c -0.903611,-0.07527 -1.119971,-0.269655 -2.594634,-2.331077 -1.647606,-2.303174 -3.491013,-4.952497 -6.324471,-9.089437 l -1.604457,-2.342563 -0.07054,6.906625 -0.07054,6.906625 h -0.789356 -0.789358 z m 23.812501,0.0048 v -8.074581 h 1.190625 1.190625 v 7.011458 7.011459 h 3.704167 3.704166 l 0.02159,0.992187 0.02159,0.992188 0.352677,-0.802617 c 0.193974,-0.441438 0.647178,-1.45347 1.007123,-2.248958 0.359944,-0.795488 0.912402,-2.041655 1.227685,-2.769259 0.708734,-1.635604 0.79583,-1.829697 2.119157,-4.722624 0.589063,-1.287759 1.071025,-2.396715 1.071025,-2.464351 0,-0.06763 0.296042,-0.770189 0.657871,-1.561229 0.634084,-1.386248 0.695528,-1.438254 1.699273,-1.438254 0.970193,0 1.063254,0.06784 1.360985,0.992187 0.17577,0.545704 0.405111,1.11125 0.509646,1.256771 0.104534,0.145521 0.5799,1.217084 1.056372,2.38125 0.47647,1.164167 1.079932,2.592917 1.341025,3.175 0.261096,0.582084 1.024284,2.368021 1.695977,3.96875 0.671692,1.60073 1.336402,3.11716 1.477137,3.369847 0.47472,0.852356 0.292565,1.027158 -0.983854,0.944129 l -1.239734,-0.08064 -0.797115,-1.925003 -0.797116,-1.925 -3.843454,0.07292 -3.843451,0.07292 -0.711626,1.852083 -0.711626,1.852084 -6.240362,0.07093 -6.240365,0.07094 v -8.07458 z m 20.6375,2.042392 c 0,-0.45398 -2.583513,-6.71254 -2.790169,-6.759186 -0.188396,-0.04253 -2.954597,6.168946 -3.011606,6.762525 -0.01048,0.109141 1.290629,0.198438 2.891358,0.198438 1.60073,0 2.910417,-0.0908 2.910417,-0.201777 z m 30.614113,5.707275 c 0.15256,-0.190368 0.36485,-0.630868 0.47176,-0.97889 0.10692,-0.348022 0.66298,-1.65771 1.2357,-2.910417 0.57272,-1.252706 1.14711,-2.515774 1.27642,-2.806816 0.1293,-0.291042 0.58107,-1.303073 1.00392,-2.248958 0.42285,-0.945886 1.27681,-2.880651 1.89768,-4.29948 l 1.12885,-2.579687 h 0.99743 c 0.87844,0 1.03841,0.102579 1.34099,0.859896 0.35396,0.885941 1.41709,3.363761 1.84472,4.299479 1.07875,2.360414 4.4905,10.49872 4.4905,10.711513 0,0.147783 -0.51566,0.268695 -1.14591,0.268695 -1.25661,0 -1.23037,0.02928 -2.31208,-2.579687 l -0.57592,-1.389063 h -3.75917 c -4.25001,0 -3.82737,-0.218244 -4.86756,2.513542 l -0.50372,1.322917 -1.40049,0.08154 c -1.12552,0.06553 -1.34603,0.01357 -1.12312,-0.264584 z m 10.51556,-6.497686 c -0.22935,-0.545703 -0.90602,-2.213104 -1.50369,-3.705336 -1.06449,-2.657755 -1.09349,-2.698271 -1.42055,-1.984375 -0.75872,1.656157 -1.37701,3.149508 -1.5615,3.771482 -0.10791,0.363802 -0.28341,0.780521 -0.39001,0.926042 -0.10659,0.145521 -0.32396,0.651536 -0.48302,1.124479 l -0.28921,0.859896 h 3.0325 3.03249 z m 7.55366,-1.25677 v -8.069792 h 1.05833 1.05834 v 7.011458 7.011459 h 3.70416 3.70417 v 1.058333 1.058333 h -4.7625 -4.7625 z m 11.64167,0 v -8.069792 h 1.19062 1.19063 v 7.011458 7.011459 h 3.70416 3.70417 v 1.058333 1.058333 h -4.89479 -4.89479 z m 11.90625,0 v -8.069792 h 5.15937 5.15938 v 1.058333 1.058334 h -4.10104 -4.10104 v 2.38125 2.38125 h 3.83645 3.83646 v 1.058333 1.058333 h -3.83646 -3.83645 v 2.513542 2.513542 h 4.36562 4.36563 v 1.058333 1.058333 h -5.42396 -5.42396 z M 36.115632,36.126782 c -0.953069,-0.25708 -3.019391,-1.24033 -3.571876,-1.699663 -0.218281,-0.181477 -0.673645,-0.641323 -1.011917,-1.021879 l -0.615043,-0.69192 1.634985,-2.210905 c 0.899242,-1.215996 1.726772,-2.245662 1.838958,-2.288146 0.112183,-0.04248 0.512442,0.289356 0.889463,0.737417 1.234601,1.467242 3.271385,1.959954 5.042683,1.219856 1.144389,-0.478155 1.745872,-1.361731 1.745872,-2.56468 0,-1.694294 -0.886947,-2.385597 -5.838902,-4.550955 -1.860312,-0.813464 -3.467696,-2.376905 -4.072866,-3.961527 -0.676926,-1.772502 -0.484508,-5.949532 0.347778,-7.549687 0.894435,-1.7196415 2.268893,-3.0930785 3.888235,-3.8853487 1.187659,-0.5810676 1.837143,-0.7159622 3.500824,-0.7271062 2.529041,-0.016941 3.877501,0.3440359 5.525238,1.4790793 1.45432,1.0018067 1.629434,1.4098434 0.958668,2.2337986 -0.259885,0.319236 -0.948767,1.232285 -1.53085,2.029 -1.067859,1.46161 -1.549662,1.758001 -1.799479,1.106988 -0.207092,-0.53967 -1.865178,-1.232301 -2.950001,-1.232301 -1.91307,0 -3.320312,1.233517 -3.320312,2.910416 0,1.727182 0.770644,2.343838 4.936159,3.949833 2.148724,0.828431 3.721381,2.10222 4.582885,3.711958 0.961581,1.79673 0.812089,6.643601 -0.270354,8.765361 -0.753012,1.476028 -2.358435,3.003819 -3.868676,3.681605 -1.394802,0.625978 -4.669515,0.928873 -6.041472,0.558806 z m 27.485626,2.64e-4 c -1.935615,-0.501631 -5.128334,-2.612885 -5.128334,-3.391162 0,-0.121753 0.755356,-1.258263 1.678569,-2.525577 l 1.678567,-2.304206 0.763773,0.916024 c 2.382348,2.857251 6.991591,1.911422 6.991591,-1.434698 0,-1.244375 -1.365256,-2.366229 -4.517332,-3.711969 -3.521739,-1.503566 -4.952072,-2.825729 -5.61575,-5.191056 -0.557781,-1.987919 -0.566536,-3.161505 -0.03878,-5.198187 0.92805,-3.5814703 3.218818,-5.7433635 6.683187,-6.3072038 1.71441,-0.2790275 4.427977,0.066163 5.702925,0.7254644 0.996521,0.5153208 2.548228,1.7282153 2.548239,1.991835 5e-6,0.1046189 -0.73886,1.1961304 -1.641917,2.4255804 l -1.641925,2.235364 -0.779068,-0.761682 c -2.082448,-2.035981 -5.991249,-0.912527 -5.991249,1.721985 0,1.842321 0.68117,2.428109 4.630208,3.981853 3.969298,1.561716 5.486956,3.719806 5.486956,7.802388 0,4.057139 -1.708528,7.10678 -4.745035,8.469667 -1.389761,0.623769 -4.649502,0.922428 -6.064628,0.555641 z m 41.041462,-0.01159 c -4.3132,-1.041585 -7.657829,-4.584814 -9.028768,-9.564892 -0.634799,-2.305981 -0.645313,-7.669429 -0.01947,-9.936681 1.901867,-6.8900198 6.873148,-10.5105694 13.200748,-9.6140222 4.62086,0.6547207 7.74911,3.5224372 9.66083,8.8562342 0.69296,1.933382 0.6835,9.136468 -0.0149,11.31533 -1.14408,3.569486 -3.17081,6.31697 -5.65869,7.671046 -2.40328,1.308026 -5.79691,1.838759 -8.13978,1.272985 z m 4.439,-5.855478 c 3.6938,-1.025777 5.80812,-6.513544 4.55585,-11.824817 -0.82336,-3.492083 -3.00575,-5.57363 -6.10446,-5.822364 -1.33321,-0.107018 -1.88087,-0.02353 -2.81636,0.429333 -1.60511,0.777023 -2.81166,2.023157 -3.6212,3.740007 -0.62429,1.323988 -0.68617,1.753434 -0.68617,4.7625 0,3.052683 0.0548,3.419319 0.71152,4.7625 1.71523,3.508021 4.52991,4.905613 7.96082,3.952841 z m 42.50585,5.756555 c -1.50407,-0.426699 -3.32584,-1.485431 -4.27523,-2.484575 l -0.72205,-0.759886 1.58382,-2.220111 c 0.8711,-1.22106 1.64469,-2.28098 1.71909,-2.355379 0.0744,-0.0744 0.57957,0.292931 1.1226,0.816288 2.56211,2.469271 6.67588,1.627309 6.67588,-1.366348 0,-1.612242 -1.13347,-2.678195 -4.10105,-3.856776 -1.30968,-0.520145 -2.81817,-1.247646 -3.35218,-1.616668 -2.13445,-1.474983 -3.03168,-3.805449 -2.79492,-7.259584 0.29761,-4.342076 2.82104,-7.2582889 6.84085,-7.905661 2.80004,-0.4509331 6.3061,0.5314995 7.88155,2.2084897 l 0.53258,0.5669074 -1.72966,2.3391569 c -1.63132,2.206161 -1.75057,2.309307 -2.09739,1.814154 -0.52084,-0.743612 -2.00952,-1.387908 -3.20415,-1.386748 -2.04988,0.002 -3.46718,1.527509 -3.16711,3.408949 0.2245,1.407587 1.03192,1.952997 5.4997,3.715042 1.66879,0.658149 3.15949,1.992098 4.0126,3.590645 0.47302,0.886346 0.5652,1.509802 0.56722,3.836458 0.002,2.602884 -0.0522,2.890094 -0.86362,4.553159 -0.93503,1.916425 -2.32881,3.270557 -4.15672,4.038476 -1.40664,0.590939 -4.44906,0.756012 -5.97181,0.324011 z M -7.8161713,35.236824 c -0.069659,-0.181901 -0.095688,-6.462448 -0.057842,-13.956771 l 0.068811,-13.6260419 4.6302084,-0.077165 c 5.5714843,-0.092852 7.620678,0.1966806 9.2702416,1.3098004 2.1575382,1.4558995 3.1573674,3.6939095 3.1623125,7.0784845 0.00516,3.530342 -1.3270111,6.196037 -3.6776346,7.359034 l -1.0452447,0.517144 0.6824184,1.431351 c 0.37533,0.787244 1.5113521,3.157757 2.5244936,5.26781 1.0131425,2.110052 1.9464708,4.108235 2.0740635,4.440406 L 10.04764,35.584822 7.118427,35.510043 4.1892127,35.435261 3.1882344,33.054011 C 2.6376965,31.744324 1.6083091,29.273777 0.90070743,27.563907 L -0.38584149,24.455053 H -1.648126 -2.9104108 v 5.55625 5.55625 h -2.3895539 c -1.6677061,0 -2.4278138,-0.09991 -2.5162066,-0.330729 z M 3.0863775,18.47625 C 4.611771,17.336195 4.4622616,14.326219 2.8308294,13.331475 2.1529912,12.918172 1.4968666,12.815167 -0.46301489,12.814375 l -2.44739591,-9.89e-4 v 3.199793 3.199793 l 2.6272041,-0.09094 C 1.8812258,19.047112 2.4747648,18.93336 3.0863775,18.47625 Z m 9.8782115,3.068386 V 7.5217195 h 7.540626 7.540625 v 2.9104165 2.910417 H 22.886465 17.72709 v 2.513541 2.513542 h 4.894791 4.894792 v 2.910417 2.910417 H 22.61293 17.709188 l 0.0751,2.84427 0.0751,2.844271 5.357813,0.07163 5.357812,0.07162 v 2.772648 2.772646 h -7.805208 -7.805209 z m 37.570834,0 V 7.5217195 h 2.513542 2.513542 V 21.544636 35.567553 h -2.513542 -2.513542 z m 32.014584,2.778125 V 13.077969 h -3.175 -3.175 V 10.299844 7.5217195 h 8.872797 8.8728 l -0.0754,2.7119795 -0.0754,2.711979 -3.241146,0.07429 -3.241146,0.07429 v 11.236648 11.236648 h -2.38125 -2.38125 z M 122.50209,21.544636 V 7.5217195 l 3.37344,0.00167 3.37344,0.00167 1.4381,2.9748905 c 0.79096,1.6362 2.8984,5.951463 4.68319,9.589484 l 3.24508,6.614583 0.0132,-9.591146 0.0131,-9.5911452 h 2.51355 2.51354 V 21.55278 35.583841 l -3.24115,-0.07429 -3.24114,-0.07429 -1.49959,-3.042708 c -0.82477,-1.67349 -2.98992,-6.078802 -4.81144,-9.789583 l -3.31185,-6.746876 -0.0172,9.85573 -0.0172,9.855729 h -2.51354 -2.51354 z M 18.568279,2.9576569 c 0.729965,-1.3460677 1.449211,-2.59622392 1.598324,-2.77812496 0.3281,-0.40024527 6.388069,-0.4787019 6.247639,-0.08088657 -0.04851,0.13741347 -1.205249,1.38756973 -2.570541,2.77812503 l -2.482345,2.5282824 h -2.060144 -2.060144 z"
       id="path1122" />
    <path
       style="fill:#e20815;stroke-width:0.264583"
       d="m 172.35514,64.489424 c -1.37502,-0.808751 -1.57304,-0.977262 -2.27311,-1.934371 -2.17277,-2.970564 -1.95354,-7.632406 0.48592,-10.332588 0.8937,-0.989219 2.71806,-1.838245 3.94996,-1.838245 0.97416,0 2.82846,0.939689 3.72735,1.888876 2.92821,3.092053 2.40346,9.454203 -0.96645,11.717464 -1.49689,1.005325 -3.68558,1.22708 -4.92367,0.498864 z M 169.06876,22.999845 V 0.37796944 h 7.44535 7.44535 l -0.16211,1.38906246 c -0.84328,7.2256267 -1.27652,10.9021141 -1.62909,13.8244791 -0.22823,1.891771 -0.64965,5.463646 -0.93648,7.9375 -0.28683,2.473854 -0.6911,5.926667 -0.89836,7.672917 -0.20727,1.74625 -0.56654,4.901406 -0.79838,7.011458 -0.23184,2.110052 -0.54923,4.64013 -0.70531,5.622396 l -0.28378,1.785938 h -4.7386 -4.73859 z M -8.2020775,41.917553 V 40.594636 H 77.126049 162.45418 v 1.322917 1.322917 H 77.126049 -8.2020775 Z"
       id="path1124" />
  </g>
</svg>
