<?xml version="1.0" encoding="UTF-8" standalone="no"?>
<svg
   xmlns:dc="http://purl.org/dc/elements/1.1/"
   xmlns:cc="http://creativecommons.org/ns#"
   xmlns:rdf="http://www.w3.org/1999/02/22-rdf-syntax-ns#"
   xmlns:svg="http://www.w3.org/2000/svg"
   xmlns="http://www.w3.org/2000/svg"
   xmlns:sodipodi="http://sodipodi.sourceforge.net/DTD/sodipodi-0.dtd"
   xmlns:inkscape="http://www.inkscape.org/namespaces/inkscape"
   width="400"
   height="116.28023"
   viewBox="0 0 105.83334 30.765811"
   version="1.1"
   id="svg134"
   inkscape:version="1.0.1 (0767f8302a, 2020-10-17)"
   sodipodi:docname="Logo_Lutte_Ouvrière.svg">
  <defs
     id="defs128" />
  <sodipodi:namedview
     id="base"
     pagecolor="#ffffff"
     bordercolor="#666666"
     borderopacity="1.0"
     inkscape:pageopacity="0.0"
     inkscape:pageshadow="2"
     inkscape:zoom="1.4142136"
     inkscape:cx="209.3021"
     inkscape:cy="45.380037"
     inkscape:document-units="mm"
     inkscape:current-layer="layer1"
     showgrid="false"
     units="px"
     fit-margin-top="3"
     fit-margin-left="3"
     fit-margin-right="3"
     fit-margin-bottom="3"
     inkscape:window-width="1366"
     inkscape:window-height="704"
     inkscape:window-x="0"
     inkscape:window-y="27"
     inkscape:window-maximized="1"
     inkscape:document-rotation="0" />
  <metadata
     id="metadata131">
    <rdf:RDF>
      <cc:Work
         rdf:about="">
        <dc:format>image/svg+xml</dc:format>
        <dc:type
           rdf:resource="http://purl.org/dc/dcmitype/StillImage" />
        <dc:title></dc:title>
      </cc:Work>
    </rdf:RDF>
  </metadata>
  <g
     inkscape:label="Calque 1"
     inkscape:groupmode="layer"
     id="layer1"
     transform="translate(-77.280809,-104.49792)">
    <path
       d="m 104.56227,115.5945 -6.262185,-6.35879 -6.417694,1.08655 3.597835,3.68248 -10.035027,10.20212 c -1.302989,-1.22738 -1.964211,-3.05856 -1.964211,-5.4532 0,-2.09273 0.46671,-4.00439 1.341895,-5.67462 0.388941,-0.7245 0.894639,-1.50916 1.439112,-2.17322 0.544582,-0.68384 1.147414,-1.36831 1.691975,-1.91165 0.544475,-0.52332 1.341893,-1.26763 2.236488,-2.07261 0.914028,-0.80479 1.575273,-1.38846 1.866951,-1.62989 -2.080916,0.38259 -3.967325,1.16713 -5.698162,2.27381 -1.69193,1.10678 -3.131087,2.49522 -4.220153,4.08487 -1.089067,1.58975 -1.866949,3.28 -2.119776,5.05081 -0.136146,0.88506 -0.194522,1.81107 -0.194522,2.63607 0,1.58976 0.233406,3.09892 0.622346,4.44713 0.388942,1.36833 1.089067,2.53547 2.003114,3.46107 l -4.045133,4.32642 c -0.233407,0.24184 -0.330564,0.62337 -0.330564,0.98615 0,0.48266 0.233407,0.9059 0.583464,1.26774 0.388942,0.38258 0.797377,0.64424 1.205781,0.64424 0.311173,0 0.661231,-0.18139 0.952911,-0.48265 l 4.239605,-4.30619 c 1.750289,1.08655 3.792309,1.65 6.087154,1.65 1.78914,0 3.461628,-0.4222 4.939685,-1.16715 1.478004,-0.76515 2.625427,-1.97191 3.364458,-3.50129 0.680613,0.66404 1.750283,2.87749 4.764653,5.79533 0.36946,0.36173 0.83627,0.60359 1.32245,0.60359 0.4862,0 0.89464,-0.221 1.18629,-0.52332 0.29168,-0.32212 0.66122,-0.82458 0.4862,-1.30797 -0.15564,-0.40239 -0.31117,-0.82458 -0.4862,-1.24762 -2.31426,-2.03237 -4.62857,-4.06474 -6.962264,-6.09713 H 98.37795 c -0.777879,1.28786 -1.808596,2.25369 -3.033824,2.85739 -1.069615,0.5233 -2.178134,0.80477 -3.208846,0.80477 -1.147422,0 -2.450412,-0.38258 -3.928422,-1.12679 l 9.626587,-9.94057 3.014375,2.9781 z"
       style="fill:#ed1b24;fill-opacity:0.994898;fill-rule:evenodd;stroke:none;stroke-width:0.0484719"
       id="path84"
       inkscape:connector-curvature="0" />
    <path
       d="m 155.61644,123.9547 h 4.72066 c 0.14406,0 0.23996,0.0729 0.23996,0.16888 v 0.16991 c 0,0.0938 -0.0959,0.16785 -0.23996,0.16785 h -4.72066 c -0.14407,0 -0.2407,-0.073 -0.2407,-0.16888 v -0.16888 c 0,-0.0938 0.0969,-0.16888 0.2407,-0.16888 m -6.34224,0 h 3.21864 c 0.0969,0 0.16857,0.0729 0.16857,0.16888 v 0.16888 c 0,0.0938 -0.0719,0.16888 -0.16857,0.16888 h -3.21864 c -0.0969,0 -0.16857,-0.073 -0.16857,-0.16888 v -0.16888 c 0,-0.0938 0.0719,-0.16888 0.16857,-0.16888 m 23.26757,-10.40186 3.17192,-0.01 c 0.50435,0.0521 0.61202,0.0208 0.61202,0.53059 v 0.5056 c 0,0.16888 0.0239,0.54207 -0.5527,0.51915 h -3.23131 z m -6.83475,6.66538 c 0,-3.12205 0.0114,-4.73735 0,-7.85858 0,-1.02474 0.0365,-1.88049 1.9098,-1.88049 4.62486,0 8.30116,7.3e-4 12.92521,7.3e-4 1.38167,0 1.77836,0.68594 1.77836,1.8805 l -5.7e-4,2.75939 c 0,0.6755 0,1.36269 -0.84012,1.31433 l -8.93773,-7.5e-4 v 2.07368 h 2.22254 c 0.84085,0 1.56142,-0.0626 1.56142,-0.85587 v -0.67447 l 5.99387,-0.0312 c 0,1.25346 -0.0114,2.03729 0,3.27885 -0.024,0.77143 -0.68407,1.36187 -1.69365,1.36187 -4.87664,-0.0208 -8.52839,0.01 -13.39394,0 -0.92475,0.0626 -1.48934,-0.36173 -1.52499,-1.3627 m -2.17504,10.86024 5.8e-4,-6.1229 c 2.64221,0 4.51637,0.0208 7.15937,0 0.69594,0.0208 1.47749,0.35027 1.50123,0.95282 v 1.856 h -2.88293 v -0.68699 c -0.024,-0.59107 0,-0.68699 -0.72053,-0.71096 -0.32462,-0.0209 -0.76882,-0.0312 -0.78153,0 l -0.024,4.71275 z m 9.28613,-0.7829 c 0,-1.74821 0,-2.83299 0,-4.56784 0,-0.35028 0.17981,-0.77143 0.80445,-0.77143 h 7.95275 c 0.40782,0 0.67229,0.22935 0.68407,0.54313 0.0239,0.86732 0.0239,1.5789 0.0239,2.26537 0,0.2773 -0.18044,0.48266 -0.38477,0.48266 l -5.12921,0.0208 v 0.91633 h 1.52577 c 0.47985,0 0.69678,0 0.67228,-0.25332 v -0.32524 h 3.31601 c 0,0.68698 0,0.98824 -5.9e-4,1.68732 0,0.4222 -0.44419,0.78392 -1.02067,0.78392 -2.78708,-0.01 -4.85287,-7.2e-4 -7.63997,-7.2e-4 -0.54083,0.0208 -0.78069,-0.24081 -0.80447,-0.78289 m -19.4361,-0.0521 c 0,-1.74748 0,-2.83215 0,-4.56785 0,-0.35026 0.18045,-0.7714 0.8053,-0.7714 l 7.95197,7.2e-4 c 0.40854,0 0.67228,0.22934 0.68406,0.54208 0.0239,0.86733 0.0239,1.57881 0.0239,2.2661 0,0.27729 -0.18044,0.48266 -0.38477,0.48266 l -5.12923,0.0208 v 0.91632 h 1.5258 c 0.48057,0 0.69677,0 0.67302,-0.25331 v -0.32524 h 3.31522 v 1.68805 c 0,0.42114 -0.44503,0.78289 -1.0214,0.78289 -2.78711,-0.01 -4.85289,0 -7.64,0 -0.53999,0.0208 -0.7807,-0.24186 -0.80446,-0.78394 m 23.38792,-3.88054 1.80211,0.0208 c 0.50433,0.18034 0.45608,0.85585 0.0594,1.03621 h -1.86151 z m -19.4361,-0.0521 1.80211,0.0208 c 0.50434,0.18036 0.45608,0.85587 0.0604,1.0362 h -1.86228 z m -37.8258,-15.79148 h 6.14984 c -0.0114,2.31447 -0.0114,5.35178 0,7.13564 0.0115,0.55457 0,0.72345 1.78945,0.89234 1.50203,-0.19285 1.1655,-0.35028 1.50203,-0.87984 v -7.14834 l 6.09046,7.3e-4 -7.5e-4,10.98053 h -6.09043 l 0.0135,-1.3381 c -0.3729,0.0521 0.13218,1.41013 -1.89792,1.41013 -1.0214,0 -2.57095,0 -5.41824,0 -1.17659,0.0521 -2.04123,-0.47015 -2.04123,-1.88048 z m 0.0594,14.37978 3.86789,-0.01 c -0.0114,1.28985 -0.0604,3.01355 -0.048,4.0017 0,0.31377 0,0.40968 1.09345,0.50663 0.91215,-0.10941 0.70867,-0.20537 0.91215,-0.50663 l 0.048,-4.0017 h 3.71191 l -0.0479,6.15938 h -3.71129 v -0.74744 c -0.64851,0.7589 0.99763,0.78391 -4.56389,0.7589 -0.72127,0.0208 -1.26211,-0.33777 -1.26132,-1.12116 z m -9.62181,-16.04336 v 12.70434 h 7.02716 v -12.70434 z m 51.12437,-0.17929 v 1.90426 h 2.36665 v 3.31448 h -2.36665 c 0,1.44663 0.0604,2.78474 0.0604,4.11022 0,1.18131 0.17983,1.18131 1.18926,1.18131 l 1.11723,0.073 -5.9e-4,2.24233 -8.79284,-0.01 c -0.39593,-0.01 -0.67228,-0.18035 -0.68407,-0.59107 0,-2.39839 0,-4.60424 0,-7.00262 l -2.36664,0.01 0.0114,-2.30257 c 3.03969,-0.26479 3.38806,-0.25228 5.71832,-2.95257 z m -14.18651,-7.4e-4 v 1.90425 h 2.36666 v 3.31523 l -2.36666,-7.3e-4 c 0,1.44651 0.10774,2.78472 0.0604,4.11094 -0.048,1.18057 -0.048,1.18057 1.29694,1.20508 l 1.00953,0.0521 -5.9e-4,2.2416 -8.79283,-0.01 c -0.39593,-0.01 -0.67228,-0.18139 -0.68406,-0.59108 0,-2.39911 0,-4.60433 0,-7.00344 l -2.36668,0.01 0.0114,-2.30175 c 3.0397,-0.26478 3.38809,-0.25331 5.71834,-2.95339 z m -32.70967,19.73079 v -1.69994 c 0,-0.18036 0.38404,-0.39718 0.52811,-0.39718 0.25259,0 0.5891,0 0.85356,0.01 0.15595,-0.01 0.51624,0.19287 0.51624,0.37425 v 1.6991 c 0,0.20537 -0.36029,0.51914 -0.51624,0.51914 h -0.85356 c -0.15596,0 -0.52811,-0.30127 -0.52811,-0.50558 m -4.22818,-2.56778 c 0,-0.75891 0.50435,-0.9403 1.35714,-0.9403 2.47435,0 4.14424,0 6.63125,0 0.68406,0 1.02056,0.34923 1.02056,0.9403 0,1.63978 0,2.78471 0,4.43555 0,0.63903 -0.3365,0.78393 -1.02139,0.78393 -2.48622,0 -4.32398,0 -6.79831,-7.5e-4 -0.85357,0 -1.18929,-0.14386 -1.18929,-0.95175 0,-1.53053 0,-2.73646 0,-4.267 m 20.04815,-0.95176 h 3.89245 l 1.52499,2.84498 1.18927,-2.84498 2.37854,7.3e-4 -2.4989,6.17115 -3.55513,0.0208 z m 9.72954,6.16021 0.0135,-6.15938 c 2.6422,0 4.50449,0.0209 7.15937,0.01 0.69678,0.01 1.47748,0.33777 1.48935,0.94031 v 1.87965 h -2.88283 v -0.68699 c -0.0114,-0.61504 0,-0.71095 -0.70866,-0.73492 -0.32463,-0.01 -0.76882,-0.0312 -0.79259,0.01 l -0.0135,4.73723 z m 9.39379,-6.15938 h 3.55595 v 6.15938 h -3.55498 z"
       style="fill:#ed1b24;fill-opacity:0.994898;fill-rule:evenodd;stroke:none;stroke-width:0.79179"
       id="path96"
       inkscape:connector-curvature="0" />
  </g>
</svg>
