<?xml version="1.0" encoding="UTF-8" standalone="no"?>
<svg
   xmlns:dc="http://purl.org/dc/elements/1.1/"
   xmlns:cc="http://creativecommons.org/ns#"
   xmlns:rdf="http://www.w3.org/1999/02/22-rdf-syntax-ns#"
   xmlns:svg="http://www.w3.org/2000/svg"
   xmlns="http://www.w3.org/2000/svg"
   xmlns:sodipodi="http://sodipodi.sourceforge.net/DTD/sodipodi-0.dtd"
   xmlns:inkscape="http://www.inkscape.org/namespaces/inkscape"
   sodipodi:docname="nda.svg"
   inkscape:version="1.0 (4035a4fb49, 2020-05-01)"
   inkscape:export-ydpi="96"
   inkscape:export-xdpi="96"
   inkscape:export-filename="C:\Users\Christopher\Documents\perso\sandbox.c-mh.fr\2022\candidates\yja.png"
   id="svg8"
   version="1.1"
   viewBox="0 0 311.14999 155.04584"
   height="586"
   width="1176">
  <defs
     id="defs2" />
  <sodipodi:namedview
     inkscape:window-maximized="0"
     inkscape:window-y="0"
     inkscape:window-x="4312"
     inkscape:window-height="2071"
     inkscape:window-width="1918"
     fit-margin-bottom="0"
     fit-margin-right="0"
     fit-margin-left="0"
     fit-margin-top="0"
     units="px"
     showgrid="false"
     inkscape:document-rotation="0"
     inkscape:current-layer="layer1"
     inkscape:document-units="mm"
     inkscape:cy="480.14933"
     inkscape:cx="464.69917"
     inkscape:zoom="0.35"
     inkscape:pageshadow="2"
     inkscape:pageopacity="0.0"
     borderopacity="1.0"
     bordercolor="#666666"
     pagecolor="#ffffff"
     id="base" />
  <metadata
     id="metadata5">
    <rdf:RDF>
      <cc:Work
         rdf:about="">
        <dc:format>image/svg+xml</dc:format>
        <dc:type
           rdf:resource="http://purl.org/dc/dcmitype/StillImage" />
        <dc:title></dc:title>
      </cc:Work>
    </rdf:RDF>
  </metadata>
  <g
     transform="translate(74.688087,14.400899)"
     id="layer1"
     inkscape:groupmode="layer"
     inkscape:label="Calque 1">
    <g
       transform="translate(-17.388395,-183.59283)"
       id="g1104">
      <path
         id="path1095"
         d="m -9.351167,313.99805 0.07186,-5.08945 1.719792,-0.47158 c 38.407702,-10.53181 86.322043,-19.45574 142.345825,-26.51156 34.30032,-4.3199 73.05402,-8.05771 104.24584,-10.05455 3.41973,-0.21893 7.14044,-0.46809 8.26822,-0.5537 l 2.05052,-0.15566 v 0.7929 c 0,0.93723 0.41298,0.86386 -8.46666,1.50411 -42.90632,3.09365 -90.78576,9.13345 -133.08542,16.78821 -40.746126,7.37362 -83.485564,17.73824 -111.906943,27.13824 -2.831166,0.93637 -5.185222,1.70249 -5.231236,1.70249 -0.04601,0 -0.05132,-2.29025 -0.0118,-5.08945 z"
         style="fill:#e64244;stroke-width:0.264583" />
      <path
         id="path1093"
         d="m -52.803265,269.09036 c 0,-14.03172 0.08638,-20.38203 0.277234,-20.38203 0.438192,0 7.434513,-0.78525 8.387869,-0.94143 l 0.859896,-0.14088 v 15.7547 c 0,14.82809 0.02723,15.7547 0.463021,15.75469 0.254661,-10e-6 3.717614,-0.3572 7.695449,-0.79375 3.977836,-0.43656 7.344163,-0.79374 7.480728,-0.79374 0.14786,0 0.219014,1.84165 0.175903,4.55285 l -0.07239,4.55285 -11.377083,1.24634 c -6.257396,0.68548 -11.94263,1.31971 -12.633854,1.40939 l -1.25677,0.16305 z m 26.193749,17.15879 c 0,-0.3197 13.223861,-41.57735 13.379095,-41.74198 0.138194,-0.14655 7.258761,-0.91816 7.35145,-0.79662 0.19594,0.25692 13.6698033,38.50504 13.6676814,38.79831 -0.00132,0.1819 -0.2107539,0.33258 -0.4654154,0.33484 -0.254661,0.002 -2.427279,0.22947 -4.828042,0.50488 -2.748952,0.31536 -4.423537,0.40608 -4.523071,0.24503 -0.08693,-0.14065 -0.498467,-1.45311 -0.914537,-2.91658 l -0.756489,-2.66085 -1.202732,0.14056 c -0.661504,0.0773 -3.195558,0.35265 -5.631236,0.61189 l -4.428503,0.47133 -0.252756,0.80763 c -0.139015,0.44419 -0.564409,1.84942 -0.945319,3.12273 -0.38091,1.2733 -0.774658,2.31677 -0.874991,2.3188 -0.100335,0.002 -2.20649,0.2385 -4.680344,0.52547 -5.341149,0.61957 -4.894791,0.59818 -4.894791,0.23456 z M -8.53212,269.98849 c 1.794235,-0.14558 2.292003,-0.27019 2.185726,-0.54714 -0.07569,-0.19725 -0.762016,-2.39666 -1.525167,-4.88758 -0.763154,-2.49092 -1.420373,-4.42601 -1.460492,-4.30021 -0.382982,1.20099 -2.989964,10.00355 -2.989964,10.09572 0,0.0666 0.329975,0.055 0.733277,-0.0256 0.403304,-0.0807 1.778783,-0.23149 3.05662,-0.33517 z m 30.076377,0.64416 c -2.14e-4,-5.87374 -0.07856,-15.02721 -0.174101,-20.34105 l -0.173709,-9.66152 12.807954,-1.39352 c 7.044375,-0.76643 12.897252,-1.38961 13.006393,-1.38483 0.10914,0.005 0.198437,2.03048 0.198437,4.50156 0,4.44586 -0.0062,4.49419 -0.595312,4.61788 -0.327422,0.0687 -3.512344,0.42992 -7.077604,0.80261 -3.56526,0.37268 -6.988307,0.74894 -7.606771,0.83612 l -1.124479,0.15852 v 3.40292 3.40293 l 0.727604,-0.12788 C 32.12005,255.34316 44.373803,254 44.728233,254 c 0.05486,0 0.09975,2.06039 0.09975,4.57864 v 4.57864 l -5.754687,0.5988 c -3.165078,0.32933 -6.260703,0.66638 -6.879166,0.74899 l -1.12448,0.15019 v 7.75726 7.75725 l -0.859895,0.13472 c -0.472943,0.0741 -2.110052,0.26181 -3.638021,0.41717 -1.527969,0.15535 -3.284141,0.35177 -3.902604,0.43648 l -1.124481,0.15403 -2.65e-4,-10.67952 z m 30.75656,-13.12683 0.06779,-20.30667 8.202083,-0.89419 c 6.956025,-0.75834 8.493347,-0.85358 10.119312,-0.62694 3.603495,0.50228 6.547289,2.57244 8.061412,5.669 0.963906,1.97131 1.252577,3.35853 1.256544,6.0384 0.0059,4.00469 -1.129398,6.74999 -3.963504,9.5841 l -1.782135,1.78214 3.935955,7.67755 c 2.164778,4.22266 3.935957,7.78346 3.935957,7.91289 0,0.26903 -0.702524,0.37953 -6.266883,0.98568 -2.209859,0.24073 -4.17439,0.37751 -4.365625,0.30394 -0.191236,-0.0736 -1.814359,-3.27669 -3.60694,-7.11806 l -3.259241,-6.98431 -1.370968,0.13793 -1.370967,0.13793 -0.132292,7.53919 -0.132291,7.53919 -3.96875,0.44955 c -2.182813,0.24725 -4.29691,0.45626 -4.697997,0.46446 l -0.729248,0.0149 z M 64.804022,252.928 c 2.92785,-0.34029 3.625083,-0.60177 4.616993,-1.7315 1.948891,-2.21966 1.412398,-5.21207 -1.105461,-6.16595 -0.503262,-0.19066 -1.604738,-0.18114 -3.638021,0.0315 l -2.916219,0.30491 v 3.91966 c 0,2.95974 0.08099,3.91949 0.330729,3.91892 0.181901,-5.3e-4 1.402292,-0.12529 2.711979,-0.2775 z m 17.608428,21.39076 c 0.0075,-0.18849 3.022097,-9.68912 6.699104,-21.11251 l 6.685471,-20.76979 2.627455,-0.30564 c 1.445101,-0.16811 3.11271,-0.31693 3.7058,-0.33073 l 1.07834,-0.0251 6.82968,19.24844 c 3.75632,10.58664 6.87688,19.37494 6.93458,19.52956 0.0677,0.18151 -1.67073,0.46405 -4.9059,0.79732 l -5.0108,0.51619 -0.81344,-2.75378 c -0.4474,-1.51457 -0.87067,-2.811 -0.94061,-2.88094 -0.12145,-0.12145 -11.049132,0.96987 -11.203997,1.11892 -0.04105,0.0395 -0.461921,1.39177 -0.935263,3.00502 -0.473342,1.61326 -0.916411,2.98898 -0.984596,3.05717 -0.06819,0.0682 -1.909506,0.31212 -4.091821,0.54207 -2.182318,0.22995 -4.354801,0.48298 -4.827744,0.5623 -0.605197,0.10149 -0.855855,0.0427 -0.846259,-0.19851 z m 17.581155,-16.22878 c 1.164165,-0.10128 2.252325,-0.25928 2.418125,-0.35112 0.21289,-0.11792 0.0737,-0.90545 -0.4736,-2.68053 -0.42628,-1.38244 -1.08373,-3.52391 -1.461,-4.75881 l -0.685942,-2.24527 -1.549096,5.15569 c -0.852001,2.83563 -1.550598,5.19836 -1.552437,5.25052 -0.0019,0.0521 0.264549,0.0316 0.591971,-0.0457 0.327421,-0.0773 1.547812,-0.22345 2.711979,-0.32473 z M 119.9065,255.5875 c -0.0347,-8.14917 -0.0645,-17.28544 -0.0661,-20.30282 l -0.003,-5.48616 3.04271,-0.31262 c 1.67349,-0.17195 3.52856,-0.37704 4.12239,-0.45577 l 1.07969,-0.14314 5.79948,9.11842 5.79948,9.11842 0.0694,-9.79108 0.0694,-9.79108 0.59209,-0.012 c 0.32565,-0.007 2.46002,-0.21889 4.74304,-0.47182 l 4.15095,-0.45987 0.0824,20.24942 c 0.0453,11.13719 0.0736,20.27807 0.0628,20.31307 -0.0496,0.16161 -7.79229,0.91646 -8.11806,0.79146 -0.20296,-0.0779 -2.85169,-4.05262 -5.88604,-8.83274 -3.03437,-4.78011 -5.64474,-8.88364 -5.80084,-9.11895 -0.20385,-0.30727 -0.25896,2.35524 -0.19556,9.44826 l 0.0883,9.87609 -0.61744,0.13093 c -0.68371,0.14499 -7.93367,0.94861 -8.55789,0.94861 -0.34341,0 -0.40203,-1.90023 -0.45707,-14.81667 z m 43.52526,9.23728 c -2.06304,-0.65365 -4.63126,-2.56374 -5.90713,-4.39337 -1.37104,-1.96609 -2.05755,-4.32111 -2.39909,-8.22993 -0.37174,-4.25439 -0.13372,-13.26728 0.41715,-15.79627 1.23809,-5.68397 5.73811,-10.44056 11.2702,-11.91278 1.95907,-0.52135 6.38338,-0.50423 8.20821,0.0317 1.85357,0.54444 2.9879,1.22268 4.56107,2.72715 1.90351,1.8204 3.22657,4.46764 3.99193,7.98727 l 0.14906,0.68548 -4.42624,0.4603 c -2.43443,0.25316 -4.60483,0.50854 -4.82311,0.56749 -0.26621,0.0719 -0.55765,-0.28282 -0.88518,-1.07738 -1.30394,-3.16327 -4.71298,-3.66012 -7.2238,-1.05284 -1.43667,1.49188 -1.70171,2.7105 -1.86931,8.59502 -0.15465,5.42949 0.18734,9.07314 1.01135,10.77532 1.64133,3.39053 6.66372,2.51158 8.05519,-1.40971 l 0.47905,-1.35001 4.78041,-0.52849 c 2.62923,-0.29066 4.81501,-0.50183 4.85731,-0.46927 0.28478,0.21928 -0.98421,4.3818 -1.94886,6.39262 -2.00772,4.18509 -5.45515,6.98778 -10.02373,8.1491 -2.25662,0.57362 -6.2147,0.50118 -8.27448,-0.15145 z m 24.27121,-22.10972 v -20.35271 l 11.70781,-1.26761 c 6.4393,-0.69719 12.21672,-1.33436 12.8387,-1.41594 l 1.13088,-0.14832 -0.0726,4.60091 -0.0725,4.6009 -7.67291,0.84372 c -4.22011,0.46405 -7.82175,0.851 -8.00365,0.8599 -0.2453,0.012 -0.33072,0.83619 -0.33072,3.19117 v 3.175 l 0.7276,-0.004 c 0.40019,-0.002 3.28744,-0.2981 6.41615,-0.65696 3.12869,-0.35887 5.89689,-0.6545 6.15155,-0.65697 0.42297,-0.004 0.46303,0.38413 0.46303,4.48838 0,4.44547 -0.006,4.49421 -0.59532,4.61919 -0.32741,0.0695 -2.91703,0.37236 -5.75469,0.67308 -2.83765,0.30073 -5.66539,0.61686 -6.28385,0.70252 l -1.12448,0.15575 v 3.40293 3.40293 l 0.72761,-0.12769 c 1.09935,-0.19293 15.24018,-1.70871 15.29304,-1.63929 0.0254,0.0332 0.11539,2.08448 0.20019,4.55833 l 0.15417,4.49792 -11.82552,1.2808 c -6.50404,0.70443 -12.33155,1.3457 -12.95001,1.42502 l -1.12448,0.14423 v -20.3527 z m 39.15834,11.35392 v -4.74004 l 4.03489,-0.44294 c 2.21919,-0.24362 4.30279,-0.44279 4.63021,-0.4426 0.5946,2.7e-4 0.59532,0.006 0.59532,4.61857 v 4.61822 l -0.85991,0.14231 c -0.47294,0.0783 -2.11005,0.26422 -3.63802,0.41323 -1.52796,0.14901 -3.22461,0.33896 -3.77031,0.42211 l -0.99218,0.15118 z m 1.32292,-9.26257 c 0,-0.15061 -0.53636,-6.14012 -1.19189,-13.31002 -0.65557,-7.1699 -1.12853,-13.09958 -1.05104,-13.17707 0.15886,-0.15886 10.77744,-1.38134 10.90348,-1.25529 0.0446,0.0446 -0.39749,5.93624 -0.98242,13.09251 -0.58494,7.15627 -1.06355,13.2893 -1.06355,13.62896 0,0.52973 -0.16637,0.64038 -1.16959,0.77788 -2.86689,0.39295 -5.44499,0.50802 -5.44499,0.24303 z M -3.157903,215.8539 c -0.120436,-13.2907 -0.09292,-20.20987 0.0808,-20.31724 0.144891,-0.0896 3.392572,-0.50096 7.217073,-0.91425 8.869286,-0.95846 11.459353,-0.90259 14.028793,0.30261 3.44778,1.61719 5.668597,4.72329 6.429716,8.99278 0.503169,2.82253 0.507479,15.29721 0.0063,18.10753 -1.058167,5.93304 -5.0327,10.33894 -10.813732,11.98738 -1.102005,0.31423 -14.906061,1.99562 -16.383847,1.99562 -0.328588,0 -0.408159,-2.83806 -0.565075,-20.15443 z m 12.6640105,9.69406 c 2.7661765,-0.30421 4.1736065,-1.15359 5.2455255,-3.16567 0.519036,-0.97427 0.571474,-1.54505 0.660154,-7.1858 0.135335,-8.60837 -0.262207,-10.52835 -2.409912,-11.63897 -0.946886,-0.48966 -1.863019,-0.5381 -4.7525383,-0.25131 l -2.0505207,0.20352 v 7.60851 c 0,4.18468 0.07824,9.24003 0.173881,11.23411 l 0.173879,3.62559 0.686017,-0.12769 c 0.3773067,-0.0702 1.4003895,-0.20626 2.2735145,-0.30229 z M 30.540482,212.06858 V 191.833 l 0.595312,-0.12881 c 0.327422,-0.0709 5.655469,-0.67141 11.840104,-1.33458 6.184635,-0.66317 11.691276,-1.27278 12.236979,-1.35469 l 0.992187,-0.14893 v 4.60658 4.60658 l -5.490104,0.58479 c -3.019557,0.32165 -6.650963,0.71669 -8.069791,0.87789 l -2.579687,0.29309 v 3.26343 3.26342 l 0.727604,-0.12533 c 0.6195,-0.1067 12.583511,-1.44894 12.915124,-1.44894 0.06358,0 0.115604,2.0586 0.115604,4.57467 v 4.57467 l -5.622395,0.59721 c -3.092318,0.32846 -6.187943,0.66645 -6.879167,0.75108 l -1.25677,0.15388 v 3.40549 c 0,1.87303 0.02976,3.40297 0.06614,3.39988 0.03638,-0.003 3.638021,-0.40851 8.003646,-0.90092 4.365625,-0.49242 7.997031,-0.83724 8.069791,-0.76628 0.07276,0.071 0.173646,2.12201 0.22419,4.55787 l 0.0919,4.42886 -12.659605,1.37769 c -6.962783,0.75773 -12.808434,1.37428 -12.990335,1.37013 -0.261633,-0.006 -0.330729,-4.2351 -0.330729,-20.24315 z m 31.549918,-3.51026 0.06779,-20.30627 7.805208,-0.86823 c 9.322022,-1.03695 12.070217,-1.03623 14.341864,0.004 2.997483,1.3723 4.741709,3.95757 5.257905,7.79321 0.476531,3.54091 -0.454673,6.77971 -2.626788,9.13618 l -1.066096,1.15657 1.23943,0.91743 c 4.314097,3.19331 4.264017,11.98057 -0.09484,16.64054 -2.972808,3.17817 -4.633317,3.70158 -15.560341,4.90476 -4.636908,0.51057 -8.656008,0.92832 -8.931331,0.92832 -0.487301,0 -0.498789,-0.53894 -0.4328,-20.30627 z m 16.971198,8.97132 c 2.303787,-1.32411 2.262809,-5.27231 -0.06396,-6.16192 -0.56149,-0.21468 -2.322673,-0.0906 -6.322266,0.44528 l -1.124479,0.15067 v 3.3713 3.3713 l 3.373438,-0.36881 c 2.044321,-0.2235 3.674379,-0.54178 4.137263,-0.80783 z M 75.27377,202.30253 c 3.096479,-0.38869 3.948258,-0.78493 4.588708,-2.13457 0.75035,-1.58126 0.328165,-3.34263 -0.960985,-4.00928 -0.69764,-0.36076 -1.19239,-0.37032 -4.072358,-0.0787 l -3.278238,0.33198 v 3.12942 c 0,2.8073 0.04766,3.12855 0.463021,3.12082 0.254661,-0.005 1.721593,-0.16659 3.259852,-0.35969 z m 27.87182,21.31701 c -4.156129,-1.43672 -6.921993,-4.67044 -7.965841,-9.31329 -0.654209,-2.9098 -0.661503,-16.18136 -0.01047,-19.04375 0.726246,-3.19308 2.085419,-5.64583 4.403436,-7.9464 3.465185,-3.43912 6.579375,-4.61168 11.797975,-4.44222 2.58912,0.0841 3.10027,0.18416 4.63021,0.90659 3.44007,1.62441 5.8185,4.58493 6.80187,8.46658 0.68744,2.71343 0.69063,17.10755 0.004,19.78991 -1.46242,5.71637 -5.83515,10.25902 -11.21009,11.64571 -2.25101,0.58074 -6.68472,0.54762 -8.45149,-0.0631 z m 7.16903,-9.00673 c 1.36134,-0.61845 2.66071,-2.10357 3.09545,-3.53798 0.48818,-1.61071 0.47395,-14.42674 -0.0178,-16.07045 -0.97049,-3.24368 -4.54192,-4.07896 -7.19441,-1.6826 -1.56888,1.41739 -1.87089,2.71192 -2.02682,8.68759 -0.22321,8.55464 0.3902,11.42836 2.68158,12.56259 1.32401,0.65539 2.08941,0.66442 3.46204,0.0408 z m 29.76335,5.85458 c -1.877,-0.13161 -3.87588,-0.67438 -5.35071,-1.45294 -2.94595,-1.55514 -5.43279,-5.04141 -6.00328,-8.4159 -0.35478,-2.0986 -0.60301,-29.62355 -0.26715,-29.62355 0.44418,0 7.73445,-0.7835 8.47126,-0.91042 l 0.68656,-0.11827 0.15091,13.88753 c 0.15083,13.87971 0.15126,13.88823 0.76864,15.11883 1.04742,2.08776 2.6838,2.80403 4.98838,2.18348 1.50174,-0.40438 3.26461,-2.12119 3.66721,-3.5714 0.1977,-0.71214 0.29405,-5.57186 0.29504,-14.88194 7.9e-4,-7.67609 0.10399,-13.82448 0.23198,-13.82448 0.43148,0 7.83612,-0.79582 8.56689,-0.92073 l 0.72761,-0.12437 v 14.37085 c 0,13.44525 -0.0337,14.50248 -0.52267,16.41447 -0.73758,2.8839 -1.95741,5.01688 -4.10754,7.18244 -3.26877,3.29222 -7.76432,5.00462 -12.30313,4.6864 z m 30.1625,-19.24515 v -15.7361 l -0.7276,0.12361 c -0.82712,0.14052 -7.82913,0.9215 -8.26183,0.9215 -0.19342,0 -0.26048,-1.449 -0.21108,-4.56113 l 0.0724,-4.56114 12.56771,-1.37 c 6.91223,-0.7535 13.13325,-1.44353 13.82447,-1.5334 l 1.25678,-0.16339 v 4.60162 4.60162 l -4.59381,0.47971 -4.59381,0.47972 0.13375,15.77319 0.13376,15.7732 -4.33734,0.45848 c -2.38554,0.25217 -4.54571,0.45626 -4.80037,0.45354 -0.43572,-0.005 -0.46302,-0.93254 -0.46302,-15.74103 z"
         style="fill:#0081c3;stroke-width:0.264583" />
    </g>
  </g>
</svg>
