<?xml version="1.0" encoding="UTF-8" standalone="no"?>
<svg
   xmlns:dc="http://purl.org/dc/elements/1.1/"
   xmlns:cc="http://creativecommons.org/ns#"
   xmlns:rdf="http://www.w3.org/1999/02/22-rdf-syntax-ns#"
   xmlns:svg="http://www.w3.org/2000/svg"
   xmlns="http://www.w3.org/2000/svg"
   xmlns:sodipodi="http://sodipodi.sourceforge.net/DTD/sodipodi-0.dtd"
   xmlns:inkscape="http://www.inkscape.org/namespaces/inkscape"
   sodipodi:docname="ppo.svg"
   inkscape:version="1.0 (4035a4fb49, 2020-05-01)"
   id="svg1137"
   version="1.1"
   viewBox="0 0 230.1875 129.38126"
   height="129.38126mm"
   width="230.1875mm">
  <defs
     id="defs1131" />
  <sodipodi:namedview
     inkscape:window-maximized="0"
     inkscape:window-y="0"
     inkscape:window-x="4312"
     inkscape:window-height="2071"
     inkscape:window-width="1918"
     fit-margin-bottom="0"
     fit-margin-right="0"
     fit-margin-left="0"
     fit-margin-top="0"
     showgrid="false"
     inkscape:document-rotation="0"
     inkscape:current-layer="layer1"
     inkscape:document-units="mm"
     inkscape:cy="440.53245"
     inkscape:cx="421.51588"
     inkscape:zoom="0.98994949"
     inkscape:pageshadow="2"
     inkscape:pageopacity="0.0"
     borderopacity="1.0"
     bordercolor="#666666"
     pagecolor="#ffffff"
     id="base" />
  <metadata
     id="metadata1134">
    <rdf:RDF>
      <cc:Work
         rdf:about="">
        <dc:format>image/svg+xml</dc:format>
        <dc:type
           rdf:resource="http://purl.org/dc/dcmitype/StillImage" />
        <dc:title></dc:title>
      </cc:Work>
    </rdf:RDF>
  </metadata>
  <g
     transform="translate(62.177082,-83.476036)"
     id="layer1"
     inkscape:groupmode="layer"
     inkscape:label="Calque 1">
    <g
       id="g1714">
      <path
         id="path1718"
         d="m -40.709974,196.13467 c 1.944809,-2.06692 4.232647,-4.47794 5.084084,-5.35782 2.633728,-2.72168 2.693249,-2.97679 3.049637,-13.07076 l 0.190151,-5.38559 1.44253,-1.36728 c 0.793392,-0.752 1.978313,-1.82452 2.633157,-2.38338 1.431914,-1.22202 0.974629,-1.14683 -2.322153,0.38183 -2.275353,1.05504 -2.451354,0.97865 -0.906838,-0.39359 2.765658,-2.45719 8.056253,-5.39401 11.827949,-6.56572 2.326751,-0.72282 4.104526,-1.06074 4.094745,-0.77833 -0.0035,0.1 -0.747604,0.692 -1.653646,1.31558 -2.922373,2.0113 -2.765208,1.81418 -1.954787,2.45166 0.476134,0.37453 0.704313,0.80495 0.704313,1.32856 0,0.65382 0.105151,0.77455 0.674598,0.77455 1.632894,0 2.733243,1.22153 2.447332,2.71686 -0.09693,0.50693 0.0019,0.59043 0.697693,0.59043 1.106003,0 1.811451,1.32289 1.657826,3.10885 -0.07816,0.90866 -0.0131,1.25677 0.234929,1.25677 1.048843,0 1.475187,2.23438 0.79448,4.16371 -0.361251,1.02389 -0.34577,1.10151 0.521155,2.61295 0.491406,0.85675 0.89707,1.77746 0.901475,2.04604 0.0091,0.55666 -0.541856,1.40465 -2.56227,3.94345 -1.619768,2.03536 -2.373815,2.26687 -3.713046,1.13998 l -0.767675,-0.64596 -1.751137,2.56419 c -0.963125,1.4103 -2.773376,4.08223 -4.02278,5.93762 l -2.271647,3.37344 h -9.283046 -9.283046 z m 69.814142,3.0509 c 0,-0.11383 0.913164,-3.15644 2.029256,-6.76137 l 2.029254,-6.55441 h 1.494221 1.494221 l 2.032775,6.4225 c 1.118024,3.53238 2.032773,6.56847 2.032773,6.74688 0,0.2126 -0.453104,0.32437 -1.31491,0.32437 h -1.314911 l -0.365776,-1.25677 -0.365775,-1.25677 -2.238637,-0.0757 -2.238637,-0.0757 -0.391936,1.26635 c -0.389059,1.25706 -0.401068,1.26695 -1.636926,1.347 -0.684745,0.0443 -1.244992,-0.0125 -1.244992,-0.12633 z m 6.879167,-5.2065 c 0,-0.19657 -0.110993,-0.70258 -0.246653,-1.12448 -0.135657,-0.4219 -0.449418,-1.48146 -0.697246,-2.35459 l -0.450596,-1.5875 -0.617217,1.98438 c -1.136653,3.65437 -1.170091,3.43958 0.53548,3.43958 1.063336,0 1.476232,-0.1 1.476232,-0.35739 z m 5.027083,-1.3624 v -6.7773 l 1.097915,0.0814 1.097915,0.0814 2.396794,3.9026 c 1.318236,2.14643 2.49105,3.9026 2.606252,3.9026 0.115202,0 0.209457,-1.79278 0.209457,-3.98396 v -3.98396 l 1.12448,0.0814 1.124479,0.0814 v 6.61458 6.61458 h -1.035765 -1.035767 l -2.536108,-4.07204 -2.53611,-4.07204 -0.132292,4.07204 -0.132292,4.07204 -1.124479,0.0814 -1.124479,0.0814 z m 14.353646,6.57165 c -0.249391,-0.10063 -0.330729,-1.45888 -0.330729,-5.52274 v -5.38929 l -1.653646,-0.0788 -1.653646,-0.0788 -0.08136,-1.12448 -0.08136,-1.12448 h 4.777714 4.777713 v 1.04571 1.04571 l -1.653645,0.0788 -1.653646,0.0788 -0.07142,5.46063 c -0.07059,5.39677 -0.07832,5.46247 -0.661458,5.61878 -0.682056,0.18283 -1.245042,0.17959 -1.714513,-0.01 z m 7.342187,-0.0618 -0.661458,-0.1834 -0.07096,-6.45191 c -0.05482,-4.98508 0.0053,-6.50033 0.264584,-6.66488 0.50759,-0.32218 1.907963,-0.26262 2.267,0.0964 0.229523,0.22952 0.3175,2.09903 0.3175,6.74688 0,5.37382 -0.06161,6.42937 -0.375235,6.42937 -0.20638,0 -0.533802,0.0475 -0.727604,0.10546 -0.193805,0.058 -0.650026,0.0229 -1.013828,-0.0779 z m 7.935788,0.006 c -3.008148,-0.98701 -4.479866,-3.13324 -4.490394,-6.54842 -0.01003,-3.25137 1.026012,-5.21542 3.351223,-6.35304 1.219367,-0.59658 1.658676,-0.67007 3.504655,-0.58624 2.537553,0.11524 2.846671,0.33261 2.307619,1.62274 -0.388784,0.93049 -0.400598,0.93597 -1.491252,0.69091 -1.172599,-0.26346 -2.678483,0.0177 -3.508061,0.65503 -1.254416,0.96368 -1.704416,4.75447 -0.774118,6.52115 0.741736,1.40861 1.923902,1.91349 4.057603,1.73293 l 1.764937,-0.14934 0.174316,0.79364 c 0.09587,0.43651 0.258328,0.79365 0.361016,0.79365 0.102685,0 0.942414,-2.47055 1.866064,-5.49011 2.383184,-7.79102 2.099585,-7.25464 3.784555,-7.15784 l 1.396674,0.0802 0.854425,2.54319 c 1.467508,4.36804 3.246617,10.10525 3.246617,10.46958 0,0.2415 -0.401968,0.34869 -1.307539,0.34869 h -1.307537 l -0.354287,-1.25677 -0.354288,-1.25677 -2.257496,-0.0757 -2.257494,-0.0757 -0.380159,1.26635 -0.380158,1.26635 -1.852084,0.0418 c -1.018645,0.023 -2.625989,0.10917 -3.571875,0.19156 -0.945885,0.0824 -2.018218,0.0519 -2.382962,-0.0678 z m 12.070557,-5.901 c -0.245547,-1.22774 -1.244719,-4.51714 -1.339617,-4.41019 -0.09436,0.10633 -1.468811,4.88079 -1.468811,5.10222 0,0.0818 0.669727,0.14865 1.488281,0.14865 h 1.488282 l -0.168135,-0.84067 z m 5.31791,5.70382 c -0.103862,-0.10386 -0.188838,-3.13608 -0.188838,-6.73826 v -6.54943 l 1.738313,-0.18616 c 4.658256,-0.49885 7.201579,1.31385 6.938888,4.94555 -0.185746,2.56789 -1.54818,3.91061 -4.228023,4.16684 l -1.671053,0.15978 -0.132292,2.11666 -0.132291,2.11667 -1.067933,0.0786 c -0.587362,0.0432 -1.152908,-0.006 -1.256771,-0.11024 z m 4.900166,-6.97173 c 0.781195,-0.61449 1.09102,-1.84146 0.714835,-2.83091 -0.373472,-0.98231 -1.006731,-1.39226 -2.165818,-1.40209 l -0.992188,-0.008 v 2.38125 2.38125 h 0.89036 c 0.489699,0 1.188464,-0.23449 1.552811,-0.52109 z m 5.031308,6.9738 c -0.251806,-0.11178 -0.330729,-1.72 -0.330729,-6.73934 v -6.59254 h 1.281909 1.28191 l 0.18586,6.51383 c 0.10222,3.58261 0.13051,6.56918 0.0629,6.63683 -0.20018,0.20017 -2.122833,0.34056 -2.48181,0.18122 z m 6.81302,-5.52667 v -5.42396 l -0.7276,-0.0228 c -2.74694,-0.0861 -2.57211,-0.005 -2.66135,-1.24014 l -0.0817,-1.13065 4.71187,0.0723 4.71187,0.0723 v 0.92604 0.92605 l -1.5875,0.13229 -1.5875,0.13229 -0.0715,5.4901 -0.0715,5.49011 h -1.31755 -1.31755 z m 5.01073,3.9026 c 2.92987,-9.60019 3.58143,-11.60302 3.82902,-11.7699 0.47503,-0.32021 2.45281,-0.22745 2.7341,0.12824 0.14386,0.1819 1.12976,3.06916 2.1909,6.41614 1.06114,3.34698 1.98279,6.23425 2.04811,6.41615 0.0858,0.23892 -0.28572,0.33073 -1.33837,0.33073 h -1.45713 l -0.31973,-1.3328 -0.31973,-1.3328 -2.25931,0.076 -2.2593,0.076 -0.36578,1.25677 -0.36577,1.25677 h -1.29066 -1.29065 z m 6.53911,-3.89256 c -0.0816,-0.21276 -0.41072,-1.34385 -0.73127,-2.51354 -0.32056,-1.16969 -0.65345,-2.1261 -0.73977,-2.12537 -0.0863,8e-4 -0.46505,1.13184 -0.84164,2.51355 l -0.68473,2.51219 h 1.57293 c 1.27131,0 1.54446,-0.0742 1.42448,-0.38683 z m 4.97338,5.07796 c -0.0709,-0.18478 -0.0969,-3.19111 -0.0578,-6.68073 l 0.0711,-6.34477 1.25136,-0.0804 1.25136,-0.0804 0.0716,5.50437 0.0716,5.50439 2.31511,0.0764 2.3151,0.0764 v 1.18032 1.18033 h -3.58018 c -2.6498,0 -3.61368,-0.0873 -3.7091,-0.33596 z m 8.25942,0.15957 c -0.097,-0.097 -0.17639,-3.13311 -0.17639,-6.74688 v -6.57048 h 1.28114 1.28114 l 0.18155,6.49545 c 0.0999,3.5725 0.11162,6.6086 0.0262,6.74688 -0.17558,0.28409 -2.32243,0.3462 -2.5936,0.075 z m 4.7184,-0.0123 c -0.84471,-0.20318 -1.00416,-0.5026 -0.81228,-1.52538 l 0.18006,-0.95982 1.24215,0.20582 c 2.7182,0.4504 4.28486,-0.0935 4.28486,-1.4876 0,-0.8934 -0.84563,-1.672 -2.33163,-2.14679 -2.37501,-0.75885 -3.22542,-1.75227 -3.22363,-3.76574 0.002,-2.81559 2.66021,-4.3639 6.22162,-3.62456 1.61525,0.33533 1.86963,0.61588 1.48225,1.63477 -0.24682,0.64919 -0.31131,0.66504 -2.2093,0.54324 -1.59732,-0.10251 -2.03692,-0.0436 -2.40239,0.32186 -0.99213,0.99213 -0.39244,1.87724 1.87635,2.7694 2.69411,1.0594 3.49715,1.97955 3.49715,4.00712 0,2.70722 -1.94187,4.2382 -5.30905,4.18566 -1.08185,-0.0169 -2.20512,-0.088 -2.49616,-0.15798 z m 11.68577,0.0123 c -0.097,-0.097 -0.17639,-2.59733 -0.17639,-5.55625 v -5.37986 h -1.71979 -1.7198 v -1.19673 -1.19673 l 4.69636,0.0722 4.69635,0.0722 0.0799,0.95533 c 0.0769,0.91964 0.0423,0.96155 -0.92604,1.12157 -0.55328,0.0914 -1.33338,0.16754 -1.73356,0.16914 l -0.72761,0.003 v 5.39565 c 0,4.67605 -0.0558,5.41707 -0.41851,5.55625 -0.55873,0.2144 -1.83053,0.20461 -2.05093,-0.0158 z m 6.70277,-6.69571 v -6.62165 h 3.83646 3.83646 v 1.0484 1.04841 l -2.44739,0.0761 -2.4474,0.0761 -0.08,1.38906 -0.08,1.38906 h 1.99821 1.9982 v 1.17903 1.17904 l -1.91823,0.0777 -1.91823,0.0777 -0.0785,1.64392 -0.0785,1.64391 2.59206,0.0759 2.59206,0.0759 v 1.05833 1.05833 l -3.9026,0.0732 -3.90261,0.0732 z M 34.584371,179.35555 c -0.103695,-0.10369 -0.188536,-3.14525 -0.188536,-6.75902 v -6.57049 h 0.870368 c 0.84991,0 0.938524,0.11648 3.770312,4.95598 l 2.899945,4.95597 0.07199,-4.95597 0.07198,-4.95598 h 0.787914 0.78791 l 0.0013,3.63802 c 5.29e-4,2.00092 0.07761,4.96393 0.170993,6.58448 0.16443,2.85341 0.151862,2.95213 -0.398077,3.12668 -0.31233,0.0991 -0.776229,0.10874 -1.03089,0.0213 -0.254662,-0.0874 -1.713178,-2.30398 -3.241146,-4.92578 l -2.778125,-4.76689 -0.132292,4.8418 -0.132292,4.8418 -0.671359,0.0783 c -0.36925,0.0431 -0.756203,-0.007 -0.859895,-0.11024 z m 14.559476,-0.21393 c -1.281628,-0.45733 -1.675106,-0.79753 -2.445369,-2.11428 -1.910818,-3.26648 -1.070763,-8.82894 1.580856,-10.46773 2.12784,-1.31508 5.403734,-0.87715 6.994896,0.93509 2.077199,2.36579 2.127258,7.78203 0.09425,10.19811 -1.385893,1.64704 -3.978225,2.25042 -6.224638,1.44881 z m 3.654994,-1.6308 c 1.352479,-0.64179 1.96991,-2.15565 1.96991,-4.82993 0,-3.54754 -1.09348,-5.19964 -3.441496,-5.19964 -2.536595,0 -3.818051,2.00488 -3.59587,5.62585 0.146463,2.38695 0.77139,3.74286 2.010283,4.36176 1.148416,0.5737 1.914462,0.58421 3.057173,0.042 z m 8.853289,1.75257 c -1.47715,-0.37058 -2.529353,-1.74372 -2.880259,-3.75878 -0.358659,-2.05956 -0.402495,-9.47857 -0.05601,-9.47857 0.13362,0 0.401511,-0.0583 0.595313,-0.12951 0.939884,-0.34545 1.072366,0.23074 1.244835,5.41408 l 0.169122,5.0828 0.74073,0.63715 c 0.799605,0.68779 2.435474,0.86578 3.368386,0.3665 1.023864,-0.54795 1.175251,-1.29546 1.311588,-6.47623 l 0.132291,-5.02708 h 0.79375 0.79375 l 0.0714,5.02708 c 0.06785,4.77692 0.04151,5.08604 -0.529167,6.21166 -0.332575,0.65599 -0.972878,1.3981 -1.434925,1.66309 -0.99187,0.56885 -3.035916,0.79016 -4.320802,0.46781 z m 11.78909,-0.24146 c -0.0793,-0.12831 -1.049179,-3.00306 -2.155291,-6.38833 -1.106114,-3.38527 -2.073031,-6.31639 -2.148705,-6.51359 -0.10184,-0.2654 0.141502,-0.35855 0.936617,-0.35855 0.999427,0 1.091735,0.0635 1.326029,0.91204 1.171731,4.24365 3.085848,10.1652 3.233613,10.00356 0.100547,-0.10999 0.87535,-2.61099 1.721786,-5.55779 l 1.538976,-5.35781 h 1.004961 c 0.552731,0 1.002636,0.0298 0.999792,0.0661 -0.02376,0.3041 -4.155334,12.84332 -4.315309,13.09688 -0.237072,0.37575 -1.923074,0.45244 -2.142469,0.0975 z m 7.704804,0.064 c -0.100938,-0.10093 -0.183523,-3.14024 -0.183523,-6.75401 v -6.57048 h 3.704167 3.704167 v 0.78449 0.7845 l -2.711979,0.0754 -2.71198,0.0754 v 1.85208 1.85209 l 2.182813,0.0768 2.182812,0.0769 v 0.78305 0.78305 H 85.21145 c -1.155578,0 -2.160196,0.0957 -2.232482,0.21266 -0.07229,0.11696 -0.06243,1.12501 0.02191,2.24011 l 0.153337,2.02746 2.674458,0.075 2.674456,0.075 v 0.79375 0.79375 l -3.586789,0.0733 c -1.972736,0.0403 -3.669377,-0.009 -3.770313,-0.11025 z m 7.742918,-0.0124 c -0.0061,-0.11836 0.91626,-3.16199 2.049653,-6.76364 l 2.06071,-6.54843 h 1.108879 1.108877 l 2.151808,6.52128 c 1.691921,5.12754 2.077136,6.56863 1.802411,6.74282 -0.873257,0.5537 -1.554134,0.05 -2.086467,-1.54357 l -0.424077,-1.26949 -2.535981,-0.0755 -2.535981,-0.0755 -0.484492,1.53068 c -0.447887,1.41504 -0.549452,1.53694 -1.344385,1.61359 -0.472943,0.0456 -0.864872,-0.0139 -0.870955,-0.1323 z m 7.152063,-4.91156 c -0.01048,-0.2523 -1.839799,-6.09793 -1.93947,-6.1976 -0.117906,-0.11791 -0.332338,0.53641 -1.510805,4.6101 l -0.478377,1.65365 h 1.965698 c 1.081135,0 1.964465,-0.0298 1.962954,-0.0661 z m 7.014205,4.71973 c -1.01977,-0.45324 -1.83204,-1.3749 -2.21231,-2.51025 -0.18164,-0.54231 -0.30123,-2.82701 -0.30123,-5.75469 v -4.85531 h 0.92604 0.92604 v 4.85566 c 0,4.61829 0.0296,4.89962 0.60437,5.75469 0.54923,0.817 0.73715,0.90611 2.05974,0.97667 1.28096,0.0684 1.53353,-0.005 2.10761,-0.61596 0.64036,-0.68098 0.65373,-0.78717 0.7341,-5.83124 l 0.0819,-5.13763 0.66511,-0.16693 c 0.36582,-0.0918 0.77207,-0.06 0.90277,0.0707 0.37613,0.37613 0.3818,9.87304 0.006,10.80964 -0.43124,1.07609 -1.3,1.97867 -2.32487,2.41535 -1.0711,0.45639 -3.13664,0.45109 -4.17569,-0.0107 z m 12.56771,-6.63796 v -6.74687 l 2.44739,0.006 c 3.20084,0.008 4.49086,0.5425 5.22865,2.16806 0.67853,1.495 0.65772,2.74793 -0.0693,4.17088 -0.73074,1.43028 -1.96461,2.11632 -4.1652,2.31586 l -1.58949,0.14413 v 2.34451 2.3445 h -0.92604 -0.92604 v -6.74688 z m 4.10104,0.13904 c 0.58208,-0.13487 1.26669,-0.50241 1.52135,-0.81675 0.46293,-0.57142 0.63074,-2.41383 0.29867,-3.27919 -0.25464,-0.66358 -1.53869,-1.20247 -2.86521,-1.20247 H 117.475 v 2.62378 c 0,3.08598 0.0772,3.17782 2.24896,2.67463 z m 3.31136,6.4094 c 0.002,-0.10914 0.93573,-3.11547 2.07442,-6.68073 l 2.07036,-6.48229 1.07393,-0.0801 1.07392,-0.0801 2.14332,6.43017 c 1.17882,3.53659 2.14331,6.57894 2.14331,6.76078 0,0.43375 -1.43952,0.43085 -1.8001,-0.004 -0.15257,-0.18384 -0.41941,-0.89821 -0.59297,-1.5875 l -0.31558,-1.25325 h -2.57956 -2.57955 l -0.44543,1.5875 c -0.43414,1.54724 -0.46857,1.5875 -1.35779,1.5875 -0.50179,0 -0.91052,-0.0893 -0.90828,-0.19844 z m 7.02063,-5.29167 c -0.36149,-1.49093 -1.7744,-5.93369 -1.85912,-5.84585 -0.16711,0.17325 -1.726,5.72776 -1.726,6.14992 0,0.34861 0.33274,0.42354 1.88077,0.42354 h 1.88077 z m 5.04691,5.27903 c -0.0717,-0.11609 -0.21541,-3.1386 -0.31924,-6.71668 l -0.1888,-6.5056 1.38352,-0.19028 c 4.04337,-0.5561 6.73384,0.96395 6.73384,3.80445 0,1.4832 -0.69071,2.76783 -1.88622,3.50813 l -0.85842,0.53156 1.67633,2.42673 c 2.29925,3.3285 2.21967,3.08818 1.02268,3.08818 -1.0153,0 -1.06782,-0.0497 -2.99218,-2.83408 -1.07731,-1.55875 -1.99691,-2.9234 -2.04356,-3.03258 -0.0466,-0.10917 0.46991,-0.45924 1.1479,-0.77794 3.07201,-1.44401 2.34936,-5.25732 -0.99694,-5.26066 -0.60118,-5.3e-4 -1.00458,0.12935 -1.02363,0.32974 -0.0173,0.1819 -0.005,2.81673 0.0262,5.85517 0.0459,4.39583 -0.0153,5.57065 -0.29928,5.75064 -0.45198,0.28643 -1.21164,0.29919 -1.3822,0.0232 z m 11.90626,-0.88033 c -0.0909,-0.45475 -0.16537,-3.07413 -0.16537,-5.82083 v -4.99401 h -1.71979 -1.71979 v -0.80015 -0.80015 l 4.43177,0.0725 4.43177,0.0725 v 0.66146 c 0,0.62414 -0.097,0.66892 -1.71979,0.79375 l -1.71979,0.13229 0.10221,5.75469 0.10221,5.75468 h -0.92904 c -0.82885,0 -0.94686,-0.0892 -1.09439,-0.82682 z m 6.51082,-5.85391 0.0707,-6.68073 h 0.79375 0.79375 l 0.0707,6.68073 0.0707,6.68073 h -0.93512 -0.93513 z m -208.553272,2.04181 c -2.384751,-3.03696 -3.704167,-5.9664 -3.704167,-8.22419 0,-0.97666 0.235044,-1.43971 1.778283,-3.50332 0.978056,-1.30785 1.855232,-2.33036 1.949281,-2.27223 0.09405,0.0581 0.232724,0.65332 0.308169,1.32266 0.186874,1.65794 1.719421,4.65126 3.457753,6.75356 l 1.43932,1.74067 -2.019007,2.68294 c -1.110454,1.47562 -2.078538,2.68211 -2.151299,2.68108 -0.07276,-0.001 -0.54901,-0.53255 -1.058333,-1.18117 z m 11.636519,-14.47722 c -2.157932,-2.70412 -3.433226,-5.93303 -3.422375,-8.66511 l 0.0058,-1.45521 3.167968,-3.96875 c 3.7019,-4.63764 7.020063,-9.2201 8.487276,-11.72111 2.351087,-4.00767 2.855044,-7.79725 2.376548,-17.87078 -0.359595,-7.57036 -0.214117,-9.5185 0.852845,-11.42062 0.698907,-1.24597 2.477423,-2.65472 3.823477,-3.02855 1.106043,-0.30717 5.130131,-0.32718 6.14488,-0.0305 0.636706,0.18612 0.626808,0.20118 -0.264584,0.40236 -2.331098,0.52613 -3.749894,1.8868 -4.500118,4.31574 -0.669478,2.16752 -0.666369,4.19048 0.01156,7.51712 1.913845,9.3914 9.628674,22.16576 19.2925643,31.94499 3.3860528,3.42647 3.4478939,3.53485 0.9387046,1.64506 -4.4699159,-3.3665 -11.2092319,-9.89034 -14.7534049,-14.28168 -0.980678,-1.21509 -1.783053,-2.06883 -1.783053,-1.89721 0,1.10679 2.493481,5.99895 4.283474,8.4041 0.459526,0.61745 0.785059,1.15945 0.723408,1.20445 -3.337946,2.43635 -15.079734,12.18494 -18.998095,15.77313 -1.365011,1.24999 -3.031886,2.77475 -3.704167,3.38834 -0.672281,0.6136 -1.301497,1.11962 -1.398259,1.12448 -0.09676,0.005 -0.674753,-0.61623 -1.284426,-1.38021 z m 62.975981,-2.5673 c 0,-0.11145 0.360217,-0.90398 0.800481,-1.76117 1.472247,-2.86643 1.563574,-6.1013 0.29423,-10.42206 -1.852949,-6.30731 -6.421848,-14.05814 -14.1709882,-24.04011 -4.0159702,-5.17313 -4.0970782,-5.31541 -1.8505567,-3.24637 7.4111989,6.82573 13.7019509,14.90566 16.7622429,21.52965 1.742162,3.7709 2.449812,6.35553 2.595907,9.48132 0.177784,3.80375 -0.294661,5.46817 -2.028645,7.14691 -1.153414,1.11667 -2.402671,1.79875 -2.402671,1.31183 z m 16.288425,-4.27467 c -0.864024,-0.12595 -1.658028,-0.31979 -1.764451,-0.43076 -0.106423,-0.11096 -0.22879,-12.33402 -0.271926,-27.16235 l -0.07843,-26.9606 0.652254,-0.272117 c 0.759158,-0.316716 8.152743,-0.404337 9.515795,-0.11277 0.895852,0.191629 1.210098,0.672964 9.639249,14.764637 4.792263,8.0116 8.821309,14.63336 8.953434,14.71502 0.143227,0.0885 0.20393,-5.81642 0.150334,-14.62374 l -0.08989,-14.77221 1.190625,-0.238398 c 1.569161,-0.314192 9.172688,-0.305948 10.186458,0.01104 l 0.79375,0.248194 0.06738,27.148694 0.06739,27.14869 -0.596554,0.18958 c -1.841984,0.58537 -8.441597,0.50461 -9.870302,-0.12078 -0.503785,-0.22052 -2.178545,-2.91424 -14.002504,-22.52194 -2.149946,-3.56526 -4.025543,-6.60135 -4.167995,-6.74687 -0.168989,-0.17263 -0.226578,4.88473 -0.165708,14.55208 l 0.09329,14.81667 -1.719792,0.30217 c -2.027613,0.35625 -6.361774,0.38947 -8.582408,0.0658 z m 46.427633,-0.28054 c -0.94049,-0.13429 -1.744943,-0.27912 -1.78767,-0.32185 -0.04273,-0.0427 -0.156089,-12.30066 -0.251908,-27.23985 -0.149598,-23.32351 -0.121308,-27.162883 0.200171,-27.167318 0.205915,-0.0028 1.684078,-0.186506 3.284807,-0.408145 4.171143,-0.577541 12.620853,-0.789676 15.955103,-0.400563 8.282311,0.966562 13.252911,3.967196 16.175841,9.764976 1.21073,2.40154 1.66521,4.91075 1.68539,9.30515 0.0217,4.72486 -0.44229,6.92523 -2.14548,10.17453 -3.09612,5.90669 -10.29983,9.05828 -19.337508,8.46008 l -2.747902,-0.18188 0.102069,8.83102 0.102071,8.83102 -1.984375,0.31455 c -2.320404,0.36782 -6.812566,0.38641 -9.250609,0.0383 z m 17.178742,-29.18825 c 1.697732,-0.599 3.037012,-1.80504 3.743782,-3.37133 0.89364,-1.9804 0.89024,-5.78749 -0.007,-7.80841 -1.24649,-2.80769 -3.564553,-4.03711 -7.611916,-4.03711 h -2.200936 v 7.62882 c 0,4.19585 0.07937,7.70819 0.17639,7.80521 0.342704,0.3427 4.775253,0.17953 5.89966,-0.21718 z m 13.926622,28.94088 c -0.85848,-0.12525 -1.60316,-0.27002 -1.65484,-0.3217 -0.0517,-0.0517 0.02,-0.4407 0.15942,-0.86448 0.13937,-0.42378 2.57642,-8.33098 5.41567,-17.57155 2.83925,-9.24057 6.4766,-21.07774 8.08301,-26.30483 1.6064,-5.22708 2.9622,-9.545246 3.01288,-9.595927 0.63358,-0.633584 12.69834,-0.741265 13.85239,-0.123636 0.29157,0.156046 0.72962,1.0413 1.08939,2.201546 0.33094,1.067307 2.19783,7.000707 4.14863,13.185347 1.9508,6.18463 5.45709,17.3036 7.79176,24.70882 2.33467,7.40521 4.24485,13.61349 4.24485,13.79617 0,0.5038 -0.50336,0.61381 -4.30958,0.94184 -3.56367,0.30712 -8.72629,0.0106 -9.26926,-0.53234 -0.12841,-0.12841 -0.85168,-2.44315 -1.60729,-5.14388 -0.7556,-2.70073 -1.44466,-4.98126 -1.53124,-5.06784 -0.0866,-0.0866 -0.91473,0.0531 -1.84034,0.31048 -2.15501,0.59917 -9.66587,0.68004 -11.81751,0.12725 -0.77184,-0.1983 -1.46448,-0.29942 -1.53919,-0.2247 -0.0747,0.0747 -0.73222,2.37925 -1.4611,5.12117 -0.72889,2.74193 -1.35503,5.01509 -1.39141,5.05148 -0.55659,0.55659 -8.24339,0.76388 -11.37624,0.30678 z m 25.05484,-20.44976 c 0.84345,-0.19846 1.58086,-0.40815 1.63868,-0.46597 0.14937,-0.14937 -4.68236,-19.00891 -4.86965,-19.00751 -0.22974,0.002 -4.85222,18.44962 -4.72162,18.84356 0.28881,0.87109 5.25563,1.26451 7.95259,0.62992 z m -140.8277966,7.30457 c -2.8630007,-1.42078 -7.1520209,-6.48316 -8.3487734,-9.85416 -0.579208,-1.63149 -0.599887,-3.60074 -0.04365,-4.15698 1.1477891,-1.14779 3.8235918,-0.0818 6.7555509,2.69126 3.32497108,3.14478 5.5967444,7.17773 5.5967444,9.9356 0,2.199 -1.36006942,2.67445 -3.9598679,1.38428 z"
         style="fill:#fcf5f6;stroke-width:0.264583" />
      <path
         id="path1716"
         d="M -62.177082,148.16667 V 83.476036 H 52.916668 168.01042 V 148.16667 212.8573 H 52.916668 -62.177082 Z m 38.76883,48.3526 c 1.249404,-1.85539 3.059655,-4.52732 4.02278,-5.93762 l 1.751137,-2.56419 0.767675,0.64596 c 1.339231,1.12689 2.093278,0.89538 3.713046,-1.13998 2.020414,-2.5388 2.571404,-3.38679 2.56227,-3.94345 -0.0044,-0.26858 -0.410069,-1.18929 -0.901475,-2.04604 -0.866925,-1.51144 -0.882406,-1.58906 -0.521155,-2.61295 0.680707,-1.92933 0.254363,-4.16371 -0.79448,-4.16371 -0.248018,0 -0.313089,-0.34811 -0.234929,-1.25677 0.153625,-1.78596 -0.551823,-3.10885 -1.657826,-3.10885 -0.695955,0 -0.794621,-0.0835 -0.697693,-0.59043 0.285911,-1.49533 -0.814438,-2.71686 -2.447332,-2.71686 -0.569447,0 -0.674598,-0.12073 -0.674598,-0.77455 0,-0.52361 -0.228179,-0.95403 -0.704313,-1.32856 -0.810421,-0.63748 -0.967586,-0.44036 1.954787,-2.45166 0.906042,-0.62358 1.650182,-1.21559 1.653646,-1.31558 0.0098,-0.28241 -1.767994,0.0555 -4.094745,0.77833 -3.771696,1.17171 -9.062291,4.10853 -11.827949,6.56572 -1.544516,1.37224 -1.368515,1.44863 0.906838,0.39359 3.296782,-1.52866 3.754067,-1.60385 2.322153,-0.38183 -0.654844,0.55886 -1.839765,1.63138 -2.633157,2.38338 l -1.44253,1.36728 -0.190151,5.38559 c -0.356388,10.09397 -0.415909,10.34908 -3.049637,13.07076 -0.851437,0.87988 -3.139275,3.2909 -5.084084,5.35782 l -3.536017,3.75804 h 9.283046 9.283046 z m 55.394338,1.44563 0.391936,-1.26635 2.238637,0.0757 2.238636,0.0757 0.365776,1.25677 0.365776,1.25677 h 1.314911 c 0.861806,0 1.31491,-0.11177 1.31491,-0.32437 0,-0.17841 -0.914749,-3.2145 -2.032773,-6.74688 l -2.032775,-6.4225 h -1.494221 -1.494221 l -2.029254,6.55441 c -1.116092,3.60493 -2.029256,6.64754 -2.029256,6.76137 0,0.11383 0.560247,0.17068 1.244992,0.12633 1.235858,-0.08 1.247867,-0.0899 1.636926,-1.347 z m 1.206553,-4.35604 c 0.08897,-0.40019 0.439513,-1.62058 0.778984,-2.71198 l 0.617217,-1.98438 0.450596,1.5875 c 0.247828,0.87313 0.561589,1.93269 0.697246,2.35459 0.445127,1.38434 0.364204,1.48187 -1.229579,1.48187 -1.473259,0 -1.475904,-0.002 -1.314464,-0.7276 z m 10.199029,1.55035 0.132292,-4.07204 2.53611,4.07204 2.536108,4.07204 h 1.035767 1.035765 v -6.61458 -6.61458 l -1.124479,-0.0814 -1.12448,-0.0814 v 3.98396 c 0,2.19118 -0.09425,3.98396 -0.209457,3.98396 -0.115202,0 -1.288016,-1.75617 -2.606252,-3.9026 l -2.396794,-3.9026 -1.097915,-0.0814 -1.097915,-0.0814 v 6.7773 6.7773 l 1.124479,-0.0814 1.124479,-0.0814 z m 13.686909,4.03895 c 0.583134,-0.15631 0.59087,-0.22201 0.661458,-5.61878 l 0.07142,-5.46063 1.653646,-0.0788 1.653645,-0.0788 v -1.04571 -1.04571 h -4.777713 -4.777714 l 0.08136,1.12448 0.08136,1.12448 1.653646,0.0788 1.653646,0.0788 v 5.38929 c 0,4.06386 0.08134,5.42211 0.330729,5.52274 0.469471,0.18943 1.032457,0.19267 1.714513,0.01 z m 7.369106,-0.0992 c 0.313629,0 0.375235,-1.05555 0.375235,-6.42937 0,-4.64785 -0.08798,-6.51736 -0.3175,-6.74688 -0.359037,-0.35904 -1.75941,-0.4186 -2.267,-0.0964 -0.259255,0.16455 -0.319408,1.6798 -0.264584,6.66488 l 0.07096,6.45191 0.661458,0.1834 c 0.363802,0.10087 0.820023,0.13594 1.013828,0.0779 0.193802,-0.058 0.521224,-0.10546 0.727604,-0.10546 z m 12.149193,-0.0905 1.852084,-0.0418 0.380158,-1.26635 0.380159,-1.26635 2.257494,0.0757 2.257496,0.0757 0.354288,1.25677 0.354287,1.25677 h 1.307537 c 0.905571,0 1.307539,-0.10719 1.307539,-0.34869 0,-0.36433 -1.779109,-6.10154 -3.246617,-10.46958 l -0.854425,-2.54319 -1.396674,-0.0802 c -1.68497,-0.0968 -1.401371,-0.63318 -3.784555,7.15785 -0.92365,3.01955 -1.763379,5.4901 -1.866064,5.4901 -0.102688,0 -0.265144,-0.35714 -0.361016,-0.79365 l -0.174316,-0.79364 -1.764937,0.14935 c -2.133701,0.18055 -3.315867,-0.32433 -4.057603,-1.73293 -0.930298,-1.76669 -0.480298,-5.55747 0.774118,-6.52116 0.829578,-0.63731 2.335462,-0.91849 3.508061,-0.65502 1.090654,0.24505 1.102468,0.23958 1.491252,-0.69091 0.539052,-1.29013 0.229934,-1.5075 -2.307619,-1.62274 -1.845979,-0.0838 -2.285288,-0.0103 -3.504655,0.58623 -2.325211,1.13762 -3.361245,3.10167 -3.351223,6.35305 0.01365,4.42544 2.669908,6.98233 6.873356,6.61621 0.945886,-0.0824 2.55323,-0.16859 3.571875,-0.19156 z m 3.307292,-5.08521 c 0,-0.22143 1.374455,-4.99589 1.468811,-5.10222 0.0949,-0.10694 1.09407,3.18246 1.339617,4.4102 l 0.168135,0.84067 h -1.488282 c -0.818554,0 -1.488281,-0.0669 -1.488281,-0.14865 z m 10.583333,2.92677 0.132292,-2.11666 1.671053,-0.15978 c 2.679843,-0.25623 4.042277,-1.59895 4.228023,-4.16684 0.132085,-1.82607 -0.396592,-3.19825 -1.548164,-4.01824 -1.061072,-0.75555 -3.33769,-1.14717 -5.390724,-0.92731 l -1.738313,0.18616 v 6.54943 c 0,3.60218 0.08498,6.6344 0.188838,6.73826 0.103863,0.10386 0.669409,0.15347 1.256771,0.11024 l 1.067933,-0.0786 z m 0,-6.74687 v -2.38125 l 0.992188,0.008 c 1.159087,0.01 1.792346,0.41979 2.165818,1.4021 0.622909,1.63837 -0.536368,3.35199 -2.267646,3.35199 h -0.89036 z m 9.956289,8.65274 c 0.0676,-0.0676 0.0394,-3.05422 -0.0629,-6.63683 l -0.18586,-6.51383 h -1.28191 -1.281909 v 6.59254 c 0,5.01934 0.07892,6.62756 0.330729,6.73934 0.358977,0.15934 2.28163,0.0189 2.48181,-0.18122 z m 7.03782,-5.4116 0.0715,-5.4901 1.5875,-0.13229 1.5875,-0.13229 v -0.92605 -0.92604 l -4.71187,-0.0723 -4.71187,-0.0723 0.0817,1.13065 c 0.0892,1.23556 -0.0856,1.1541 2.66135,1.24015 l 0.7276,0.0228 v 5.42396 5.42396 h 1.31755 1.31755 z m 4.7869,4.23334 0.36578,-1.25677 2.2593,-0.076 2.25931,-0.076 0.31973,1.3328 0.31973,1.3328 h 1.45713 c 1.05265,0 1.42416,-0.0918 1.33837,-0.33073 -0.0653,-0.1819 -0.98697,-3.06917 -2.04811,-6.41615 -1.06114,-3.34698 -2.04704,-6.23424 -2.1909,-6.41614 -0.28129,-0.35569 -2.25907,-0.44845 -2.7341,-0.12824 -0.24759,0.16688 -0.89915,2.16971 -3.82902,11.7699 l -0.4643,1.52136 h 1.29065 1.29066 z m 1.74365,-6.28251 c 0.37659,-1.38171 0.75533,-2.5128 0.84164,-2.51355 0.0863,-7.9e-4 0.41921,0.95568 0.73977,2.12537 0.32055,1.16969 0.64963,2.30078 0.73127,2.51354 0.11998,0.31266 -0.15317,0.38683 -1.42448,0.38683 h -1.57293 z m 14.57534,6.35895 v -1.18032 l -2.3151,-0.0764 -2.31511,-0.0764 -0.0716,-5.50439 -0.0716,-5.50437 -1.25136,0.0804 -1.25136,0.0804 -0.0711,6.34477 c -0.0391,3.48962 -0.0131,6.49595 0.0578,6.68073 0.0954,0.24865 1.0593,0.33596 3.7091,0.33596 h 3.58018 z m 3.56374,0.92891 c 0.0855,-0.13828 0.0737,-3.17438 -0.0262,-6.74688 l -0.18154,-6.49545 h -1.28114 -1.28114 v 6.57048 c 0,3.61377 0.0794,6.64987 0.17639,6.74688 0.27117,0.27117 2.41802,0.20906 2.5936,-0.075 z m 7.6811,-0.27777 c 2.57841,-1.24819 3.06332,-5.23542 0.8158,-6.70804 -0.36652,-0.24016 -1.29534,-0.68397 -2.06404,-0.98624 -2.26879,-0.89216 -2.86848,-1.77727 -1.87635,-2.7694 0.36547,-0.36548 0.80507,-0.42437 2.40239,-0.32186 1.89799,0.1218 1.96248,0.10595 2.2093,-0.54324 0.38738,-1.01889 0.133,-1.29944 -1.48225,-1.63477 -3.56141,-0.73934 -6.21911,0.80897 -6.22162,3.62456 -0.002,2.01347 0.84862,3.00689 3.22363,3.76574 1.486,0.47479 2.33163,1.25339 2.33163,2.14679 0,1.3941 -1.56666,1.938 -4.28486,1.4876 l -1.24215,-0.20582 -0.18006,0.95982 c -0.27115,1.44532 0.0982,1.63327 3.30844,1.68336 1.47352,0.023 2.24122,-0.10207 3.06014,-0.4985 z m 8.1804,0.36859 c 0.36269,-0.13918 0.41851,-0.8802 0.41851,-5.55625 v -5.39565 l 0.72761,-0.003 c 0.40018,-0.002 1.18028,-0.0777 1.73356,-0.16915 0.96838,-0.16002 1.00298,-0.20193 0.92604,-1.12156 l -0.0799,-0.95534 -4.69635,-0.0722 -4.69636,-0.0722 v 1.19673 1.19673 h 1.7198 1.71979 v 5.37986 c 0,2.95892 0.0794,5.45924 0.17639,5.55625 0.2204,0.2204 1.4922,0.23019 2.05093,0.0158 z m 12.45705,-1.29461 v -1.05833 l -2.59206,-0.0759 -2.59206,-0.0759 0.0785,-1.64391 0.0785,-1.64392 1.91823,-0.0777 1.91823,-0.0777 v -1.17904 -1.17903 h -1.9982 -1.99821 l 0.08,-1.38906 0.08,-1.38906 2.4474,-0.0761 2.44739,-0.0761 v -1.04841 -1.0484 h -3.83646 -3.83646 v 6.62165 6.62166 l 3.90261,-0.0732 3.9026,-0.0732 z M 36.247918,174.5457 l 0.132292,-4.8418 2.778125,4.76689 c 1.527968,2.6218 2.986484,4.8384 3.241146,4.92578 0.254661,0.0874 0.71856,0.0778 1.03089,-0.0213 0.549939,-0.17454 0.562507,-0.27326 0.398076,-3.12668 -0.09338,-1.62055 -0.17033,-4.58356 -0.170992,-6.58447 l -0.0012,-3.63803 h -0.78791 -0.787914 l -0.07198,4.95598 -0.07199,4.95597 -2.899945,-4.95597 c -2.831788,-4.8395 -2.920402,-4.95598 -3.770312,-4.95598 h -0.870368 v 6.57049 c 0,3.61377 0.08484,6.65533 0.188536,6.75902 0.103693,0.1037 0.490646,0.15331 0.859896,0.11024 l 0.671359,-0.0783 z m 17.341154,4.47677 c 2.081141,-0.94534 3.296346,-3.29801 3.296346,-6.38184 0,-4.4595 -2.496018,-7.18712 -6.224699,-6.80229 -2.707359,0.27942 -4.298976,1.93358 -4.865949,5.05715 -0.491355,2.70698 0.433152,6.29671 1.944767,7.55123 1.296495,1.076 4.133498,1.35523 5.849535,0.57575 z m -3.847404,-1.55361 c -1.238893,-0.6189 -1.86382,-1.97481 -2.010283,-4.36176 -0.222181,-3.62097 1.059275,-5.62585 3.59587,-5.62585 2.348016,0 3.441496,1.6521 3.441496,5.19964 0,2.67428 -0.617431,4.18814 -1.96991,4.82993 -1.142712,0.54225 -1.908757,0.53174 -3.057173,-0.042 z m 16.231264,1.32672 c 0.462047,-0.26499 1.10235,-1.0071 1.434925,-1.66309 0.57068,-1.12562 0.597014,-1.43474 0.529167,-6.21166 l -0.0714,-5.02708 h -0.79375 -0.79375 l -0.132291,5.02708 c -0.136337,5.18077 -0.287724,5.92828 -1.311588,6.47623 -0.932912,0.49928 -2.568781,0.32129 -3.368386,-0.3665 l -0.74073,-0.63715 -0.169122,-5.0828 c -0.172469,-5.18334 -0.304951,-5.75953 -1.244835,-5.41408 -0.193802,0.0712 -0.461693,0.12951 -0.595313,0.12951 -0.346485,0 -0.302649,7.41901 0.05601,9.47857 0.350906,2.01506 1.403109,3.3882 2.880259,3.75878 1.284886,0.32235 3.328932,0.10104 4.320802,-0.46781 z m 9.610757,0.1289 c 0.159975,-0.25356 4.291547,-12.79278 4.315309,-13.09688 0.0029,-0.0364 -0.447061,-0.0661 -0.999792,-0.0661 h -1.004961 l -1.538976,5.35781 c -0.846436,2.9468 -1.621239,5.4478 -1.721786,5.55779 -0.147765,0.16164 -2.061882,-5.75991 -3.233613,-10.00356 -0.234294,-0.84855 -0.326602,-0.91204 -1.326029,-0.91204 -0.795115,0 -1.038457,0.0932 -0.936617,0.35855 0.07567,0.1972 1.042591,3.12832 2.148705,6.51359 1.106112,3.38527 2.075995,6.26002 2.155291,6.38833 0.219395,0.35499 1.905397,0.2783 2.142469,-0.0975 z m 12.919437,-0.59531 v -0.79375 l -2.674458,-0.075 -2.674459,-0.075 -0.153337,-2.02746 c -0.08433,-1.1151 -0.09419,-2.12315 -0.02191,-2.24011 0.07229,-0.11696 1.076907,-0.21266 2.232485,-0.21266 h 2.101051 v -0.78305 -0.78305 l -2.182812,-0.0769 -2.182813,-0.0768 v -1.85209 -1.85208 l 2.71198,-0.0754 2.711979,-0.0754 v -0.7845 -0.78449 h -3.704167 -3.704167 v 6.57048 c 0,3.61377 0.08258,6.65308 0.183523,6.75401 0.100936,0.10094 1.797577,0.15055 3.770313,0.11025 l 3.586789,-0.0733 z m 2.601156,-0.73693 0.484492,-1.53068 2.535981,0.0755 2.535981,0.0755 0.424077,1.26949 c 0.532333,1.59355 1.213209,2.09727 2.086467,1.54357 0.274725,-0.17419 -0.11049,-1.61528 -1.802411,-6.74282 l -2.151808,-6.52128 h -1.108877 -1.108879 l -2.06071,6.54844 c -1.133393,3.60164 -2.055736,6.64528 -2.049653,6.76364 0.0061,0.11836 0.398012,0.17789 0.870955,0.13229 0.794933,-0.0767 0.896498,-0.19855 1.344385,-1.61359 z m 1.486448,-5.01776 c 1.178467,-4.07369 1.392899,-4.72801 1.510805,-4.6101 0.09967,0.0997 1.928998,5.9453 1.93947,6.1976 0.0016,0.0364 -0.881819,0.0661 -1.962954,0.0661 h -1.965698 z m 14.64017,6.31795 c 1.02486,-0.43668 1.89362,-1.33926 2.32487,-2.41535 0.37534,-0.9366 0.36967,-10.43351 -0.006,-10.80964 -0.13071,-0.13071 -0.53696,-0.16253 -0.90277,-0.0707 l -0.66512,0.16693 -0.0819,5.13763 c -0.0804,5.04407 -0.0937,5.15026 -0.7341,5.83124 -0.57408,0.6105 -0.82664,0.68431 -2.10761,0.61596 -1.32258,-0.0706 -1.51051,-0.15967 -2.05973,-0.97667 -0.57482,-0.85507 -0.60437,-1.1364 -0.60437,-5.75469 v -4.85566 h -0.92604 -0.92604 v 4.85531 c 0,5.06878 0.17622,6.17411 1.16113,7.28311 1.15206,1.29721 3.72776,1.75967 5.5281,0.99255 z m 10.2441,-2.24631 v -2.3445 l 1.58949,-0.14413 c 2.20059,-0.19954 3.43446,-0.88558 4.1652,-2.31586 0.72699,-1.42295 0.7478,-2.67588 0.0693,-4.17088 -0.73779,-1.62556 -2.02781,-2.16046 -5.22865,-2.16806 l -2.44739,-0.006 v 6.74687 6.74688 h 0.92604 0.92604 z m 0.33073,-4.18072 c -0.23338,-0.0942 -0.33073,-0.90577 -0.33073,-2.75724 v -2.62378 h 1.20377 c 1.32652,0 2.61057,0.53889 2.86521,1.20247 0.33207,0.86536 0.16426,2.70777 -0.29867,3.27919 -0.58935,0.72748 -2.57733,1.24728 -3.43958,0.89936 z m 7.49566,4.93773 0.44543,-1.5875 h 2.57955 2.57956 l 0.31558,1.25325 c 0.17356,0.68929 0.4404,1.40366 0.59297,1.5875 0.36058,0.43447 1.8001,0.43737 1.8001,0.004 0,-0.18184 -0.96449,-3.22419 -2.14331,-6.76078 l -2.14332,-6.43017 -1.07392,0.0801 -1.07393,0.0801 -2.07036,6.48229 c -1.13869,3.56526 -2.07219,6.57159 -2.07442,6.68073 -0.002,0.10914 0.40649,0.19844 0.90828,0.19844 0.88922,0 0.92365,-0.0403 1.35779,-1.5875 z m 1.16944,-3.59854 c 0,-0.42216 1.55889,-5.97667 1.726,-6.14992 0.0847,-0.0878 1.49763,4.35492 1.85912,5.84585 l 0.17642,0.72761 h -1.88077 c -1.54803,0 -1.88077,-0.0749 -1.88077,-0.42354 z m 10.01423,4.95174 c 0.28401,-0.17999 0.34516,-1.35481 0.29928,-5.75064 -0.0317,-3.03844 -0.0435,-5.67327 -0.0262,-5.85517 0.0491,-0.51647 1.90687,-0.39518 2.86136,0.18681 0.61082,0.37244 0.89595,0.78429 1.02715,1.48365 0.27098,1.44443 -0.36458,2.5538 -1.86794,3.26046 -0.67799,0.3187 -1.19455,0.66877 -1.1479,0.77794 0.0466,0.10918 0.96625,1.47383 2.04356,3.03258 1.92435,2.78434 1.97687,2.83408 2.99217,2.83408 1.19699,0 1.27657,0.24032 -1.02268,-3.08818 l -1.67633,-2.42673 0.85842,-0.53156 c 1.19551,-0.7403 1.88622,-2.02493 1.88622,-3.50813 0,-2.8405 -2.69047,-4.36055 -6.73384,-3.80445 l -1.38352,0.19028 0.1888,6.5056 c 0.10383,3.57808 0.24749,6.60059 0.31924,6.71668 0.17056,0.27597 0.93022,0.26321 1.3822,-0.0232 z m 12.44528,-5.78497 -0.10221,-5.75469 1.71979,-0.13229 c 1.62277,-0.12483 1.71979,-0.16961 1.71979,-0.79375 v -0.66146 l -4.43177,-0.0725 -4.43177,-0.0725 v 0.80015 0.80015 h 1.71979 1.71979 v 4.99401 c 0,2.7467 0.0744,5.36608 0.16537,5.82083 0.14753,0.73766 0.26554,0.82682 1.09439,0.82682 h 0.92904 z m 6.31848,-0.92605 -0.0707,-6.68073 h -0.79375 -0.79375 l -0.0707,6.68073 -0.0707,6.68073 h 0.93513 0.93512 z m -207.07252,0.5419 2.019007,-2.68294 -1.43932,-1.74067 c -1.738332,-2.1023 -3.270879,-5.09562 -3.457753,-6.75356 -0.07545,-0.66934 -0.21412,-1.26454 -0.308169,-1.32266 -0.09405,-0.0581 -0.971225,0.96438 -1.949281,2.27223 -1.543239,2.06361 -1.778283,2.52666 -1.778283,3.50332 0,1.60131 0.621533,3.48719 1.778091,5.39514 1.025798,1.69225 2.748363,4.0069 2.984409,4.01022 0.07276,0.001 1.040845,-1.20546 2.151299,-2.68108 z m 11.109572,-12.72158 c 0.672281,-0.61359 2.339156,-2.13835 3.704167,-3.38834 3.918361,-3.58819 15.660148,-13.33678 18.998095,-15.77313 0.06165,-0.045 -0.263882,-0.587 -0.723408,-1.20445 -1.789994,-2.40515 -4.283475,-7.29731 -4.283475,-8.4041 0,-0.17162 0.802376,0.68212 1.783054,1.89721 3.544173,4.39134 10.283489,10.91518 14.7534047,14.28168 2.5091892,1.88979 2.4473482,1.78141 -0.9387047,-1.64506 -9.66389,-9.77923 -17.37872,-22.55359 -19.292565,-31.94499 -0.677926,-3.32664 -0.681035,-5.3496 -0.01156,-7.51712 0.750223,-2.42894 2.16902,-3.78961 4.500118,-4.31574 0.891392,-0.20118 0.90129,-0.21624 0.264583,-0.40236 -1.014748,-0.29664 -5.038836,-0.27663 -6.144879,0.0305 -1.346054,0.37383 -3.12457,1.78258 -3.823478,3.02855 -1.066961,1.90212 -1.21244,3.85026 -0.852844,11.42062 0.478496,10.07353 -0.02545,13.86311 -2.376549,17.87078 -1.467212,2.50101 -4.785376,7.08347 -8.487275,11.72111 l -3.167968,3.96875 -0.0058,1.45521 c -0.0073,1.83085 0.476382,3.65492 1.508319,5.68854 0.794499,1.56571 2.856172,4.37399 3.198483,4.35678 0.09676,-0.005 0.725978,-0.51088 1.398259,-1.12448 z m 62.695967,-4.13486 c 1.733984,-1.67874 2.206429,-3.34316 2.028645,-7.14691 -0.360392,-7.71076 -5.646412,-16.93822 -15.7187082,-27.43909 -2.177288,-2.26993 -5.5599039,-5.41172 -5.2414832,-4.86831 0.1253543,0.21393 1.6790247,2.25819 3.4525982,4.5428 7.7491402,9.98197 12.3180392,17.7328 14.1709882,24.04011 1.269344,4.32076 1.178018,7.55563 -0.29423,10.42206 -0.440264,0.85719 -0.800481,1.64972 -0.800481,1.76117 0,0.48692 1.249257,-0.19516 2.402671,-1.31183 z m 22.468162,-3.0286 1.719792,-0.30217 -0.09329,-14.81667 c -0.06087,-9.66735 -0.0033,-14.72471 0.165708,-14.55208 0.142452,0.14552 2.018049,3.18161 4.167995,6.74687 11.823959,19.6077 13.498719,22.30142 14.002504,22.52194 1.428705,0.62539 8.028318,0.70615 9.870302,0.12078 l 0.596554,-0.18958 -0.06739,-27.14869 -0.06738,-27.148688 -0.79375,-0.248195 c -1.01377,-0.316993 -8.617297,-0.325237 -10.186458,-0.01104 l -1.190625,0.238398 0.08989,14.772205 c 0.0536,8.80732 -0.0071,14.71226 -0.150334,14.62374 -0.132125,-0.0817 -4.161171,-6.70342 -8.953434,-14.71502 -8.429151,-14.091669 -8.743397,-14.573004 -9.639249,-14.764633 -1.363052,-0.291567 -8.756637,-0.203946 -9.515795,0.11277 l -0.652254,0.272117 0.07843,26.960596 c 0.04313,14.82833 0.165503,27.05139 0.271926,27.16235 0.616019,0.64231 7.405415,0.88182 10.346858,0.365 z m 47.095834,-0.25306 1.984375,-0.31455 -0.102071,-8.83102 -0.102069,-8.83102 2.747902,0.18188 c 6.948928,0.45994 13.162368,-1.38567 16.740858,-4.97264 1.89401,-1.8985 3.31884,-4.44781 4.16733,-7.45619 0.82385,-2.921 0.8298,-9.28623 0.0115,-12.33593 -2.05384,-7.65475 -7.60725,-11.809051 -17.297971,-12.939976 -3.33425,-0.389113 -11.78396,-0.176978 -15.955103,0.400563 -1.600729,0.221639 -3.078892,0.405304 -3.284807,0.408145 -0.321479,0.0044 -0.349769,3.843808 -0.200171,27.167318 0.09582,14.93919 0.209177,27.19712 0.251908,27.23985 0.04273,0.0427 0.84718,0.18756 1.78767,0.32185 2.438043,0.34813 6.930205,0.32954 9.250609,-0.0383 z m 2.028473,-28.93279 c -0.09701,-0.097 -0.17639,-3.60936 -0.17639,-7.80521 v -7.62882 h 2.200936 c 4.047363,0 6.365426,1.22942 7.611926,4.03711 0.89721,2.02092 0.90061,5.82801 0.007,7.80841 -0.70677,1.56629 -2.04605,2.77233 -3.743781,3.37133 -1.124408,0.39671 -5.556956,0.55988 -5.899661,0.21718 z m 29.731382,28.74952 c 0.77275,-0.14655 1.43476,-0.29622 1.47114,-0.3326 0.0364,-0.0364 0.66252,-2.30955 1.39141,-5.05148 0.72888,-2.74192 1.38638,-5.04645 1.4611,-5.12117 0.0747,-0.0747 0.76735,0.0264 1.53919,0.2247 2.15164,0.55279 9.6625,0.47192 11.81751,-0.12725 0.92561,-0.25735 1.75376,-0.39707 1.84034,-0.31048 0.0866,0.0866 0.77564,2.36711 1.53124,5.06784 0.75561,2.70073 1.47888,5.01547 1.60729,5.14388 0.54297,0.54297 5.70559,0.83946 9.26926,0.53234 3.80622,-0.32803 4.30958,-0.43804 4.30958,-0.94184 0,-0.18268 -1.91018,-6.39096 -4.24485,-13.79617 -2.33467,-7.40522 -5.84096,-18.52419 -7.79176,-24.70882 -1.9508,-6.18464 -3.81769,-12.11804 -4.14863,-13.185347 -0.35977,-1.160246 -0.79782,-2.0455 -1.08939,-2.201546 -1.15405,-0.617629 -13.21881,-0.509948 -13.85239,0.123636 -0.0507,0.05068 -1.40648,4.368847 -3.01288,9.595927 -1.60641,5.22709 -5.24376,17.06426 -8.08301,26.30483 -2.83925,9.24057 -5.2763,17.14777 -5.41567,17.57155 -0.13936,0.42378 -0.2111,0.81279 -0.15942,0.86448 0.52536,0.52536 9.24065,0.78736 11.55994,0.34752 z m 8.61055,-20.4626 c -0.71581,-0.16793 -1.35184,-0.45724 -1.4134,-0.6429 -0.1306,-0.39394 4.49188,-18.84185 4.72162,-18.84356 0.18729,-10e-4 5.01902,18.85814 4.86965,19.00751 -0.0578,0.0578 -0.79523,0.26751 -1.63868,0.46597 -1.82768,0.43005 -4.73682,0.43583 -6.53919,0.013 z M 0.99946223,139.42041 c 0.47178117,-0.33045 0.58803907,-0.6685 0.58803907,-1.70986 0,-2.75787 -2.27177332,-6.79082 -5.5967444,-9.9356 -2.9319591,-2.77307 -5.6077618,-3.83905 -6.7555509,-2.69126 -0.556233,0.55624 -0.535554,2.52549 0.04365,4.15698 1.1967525,3.371 5.4857727,8.43338 8.3487734,9.85416 1.66140341,0.82448 2.53861622,0.90919 3.37182883,0.32558 z"
         style="fill:#cc0222;stroke-width:0.264583" />
    </g>
  </g>
</svg>
